<mxfile host="app.diagrams.net" modified="2024-06-26T00:44:11.980Z" agent="Mozilla/5.0 (Windows NT 10.0; Win64; x64) AppleWebKit/537.36 (KHTML, like Gecko) Chrome/126.0.0.0 Safari/537.36" etag="RZN8riGcpmxVjl6b_EQA" version="24.6.3" type="google" pages="3">
  <diagram name="Estado Actual - Tradicional" id="VASHzbMh9DNpgbnGAPAy">
    <mxGraphModel grid="1" page="1" gridSize="10" guides="1" tooltips="1" connect="1" arrows="1" fold="1" pageScale="1" pageWidth="1169" pageHeight="827" math="0" shadow="0">
      <root>
        <mxCell id="fw_uWWqq9sqviA4zHHhh-0" />
        <mxCell id="fw_uWWqq9sqviA4zHHhh-1" parent="fw_uWWqq9sqviA4zHHhh-0" />
        <mxCell id="fw_uWWqq9sqviA4zHHhh-2" value="Proceso de gestion de solicitud de un servicio tecnico" style="swimlane;html=1;childLayout=stackLayout;horizontal=1;startSize=20;horizontalStack=0;rounded=0;shadow=0;labelBackgroundColor=none;strokeWidth=1;fontFamily=Verdana;fontSize=26;align=center;" vertex="1" parent="fw_uWWqq9sqviA4zHHhh-1">
          <mxGeometry x="347" y="140" width="2494" height="618" as="geometry" />
        </mxCell>
        <mxCell id="fw_uWWqq9sqviA4zHHhh-3" value="&lt;font color=&quot;#ffffff&quot;&gt;Cliente&lt;/font&gt;" style="swimlane;html=1;startSize=20;horizontal=0;fontColor=#000000;" vertex="1" parent="fw_uWWqq9sqviA4zHHhh-2">
          <mxGeometry y="20" width="2494" height="268" as="geometry">
            <mxRectangle y="20" width="1000" height="30" as="alternateBounds" />
          </mxGeometry>
        </mxCell>
        <mxCell id="fw_uWWqq9sqviA4zHHhh-4" value="Inicio" style="ellipse;whiteSpace=wrap;html=1;rounded=0;shadow=0;labelBackgroundColor=none;strokeWidth=1;fontFamily=Verdana;fontSize=30;align=center;fillColor=#d5e8d4;strokeColor=#82b366;fontColor=#000000;fontStyle=1" vertex="1" parent="fw_uWWqq9sqviA4zHHhh-3">
          <mxGeometry x="55" y="51" width="110" height="120" as="geometry" />
        </mxCell>
        <mxCell id="fw_uWWqq9sqviA4zHHhh-5" value="Busqueda de Tecnico&lt;br style=&quot;font-size: 19px;&quot;&gt;- Voz a Voz&lt;br style=&quot;font-size: 19px;&quot;&gt;- Tarjetas&lt;br style=&quot;font-size: 19px;&quot;&gt;- Paginas Web" style="rounded=1;whiteSpace=wrap;html=1;shadow=0;labelBackgroundColor=none;strokeWidth=1;fontFamily=Verdana;fontSize=19;align=center;fontStyle=1" vertex="1" parent="fw_uWWqq9sqviA4zHHhh-3">
          <mxGeometry x="222" y="59" width="240" height="120" as="geometry" />
        </mxCell>
        <mxCell id="fw_uWWqq9sqviA4zHHhh-6" style="edgeStyle=orthogonalEdgeStyle;rounded=0;orthogonalLoop=1;jettySize=auto;html=1;entryX=-0.05;entryY=0.433;entryDx=0;entryDy=0;entryPerimeter=0;" edge="1" parent="fw_uWWqq9sqviA4zHHhh-3" source="fw_uWWqq9sqviA4zHHhh-4" target="fw_uWWqq9sqviA4zHHhh-5">
          <mxGeometry relative="1" as="geometry" />
        </mxCell>
        <mxCell id="fw_uWWqq9sqviA4zHHhh-7" value="" style="edgeStyle=orthogonalEdgeStyle;rounded=0;orthogonalLoop=1;jettySize=auto;html=1;exitX=1;exitY=0.5;exitDx=0;exitDy=0;" edge="1" parent="fw_uWWqq9sqviA4zHHhh-3" source="fw_uWWqq9sqviA4zHHhh-5" target="fw_uWWqq9sqviA4zHHhh-9">
          <mxGeometry relative="1" as="geometry">
            <mxPoint x="420" y="79" as="sourcePoint" />
            <mxPoint x="460" y="140.29999999999995" as="targetPoint" />
          </mxGeometry>
        </mxCell>
        <mxCell id="GihU5k3JDy8lmzni7VKv-1" style="edgeStyle=orthogonalEdgeStyle;rounded=0;orthogonalLoop=1;jettySize=auto;html=1;entryX=0;entryY=0.5;entryDx=0;entryDy=0;" edge="1" parent="fw_uWWqq9sqviA4zHHhh-3" source="fw_uWWqq9sqviA4zHHhh-9" target="GihU5k3JDy8lmzni7VKv-0">
          <mxGeometry relative="1" as="geometry" />
        </mxCell>
        <mxCell id="fw_uWWqq9sqviA4zHHhh-9" value="Selección de Técnico" style="rounded=0;whiteSpace=wrap;html=1;fontSize=26;fontStyle=1" vertex="1" parent="fw_uWWqq9sqviA4zHHhh-3">
          <mxGeometry x="520" y="68.5" width="205" height="101" as="geometry" />
        </mxCell>
        <mxCell id="fw_uWWqq9sqviA4zHHhh-14" value="Llegada del tecnico e inicio del servicio" style="points=[[0.25,0,0],[0.5,0,0],[0.75,0,0],[1,0.25,0],[1,0.5,0],[1,0.75,0],[0.75,1,0],[0.5,1,0],[0.25,1,0],[0,0.75,0],[0,0.5,0],[0,0.25,0]];shape=mxgraph.bpmn.task;whiteSpace=wrap;rectStyle=rounded;size=10;html=1;container=1;expand=0;collapsible=0;taskMarker=abstract;fontSize=24;fontStyle=1" vertex="1" parent="fw_uWWqq9sqviA4zHHhh-3">
          <mxGeometry x="1100" y="74" width="280" height="90" as="geometry" />
        </mxCell>
        <mxCell id="GihU5k3JDy8lmzni7VKv-0" value="Llamada Telefonica" style="rounded=0;whiteSpace=wrap;html=1;fontSize=24;fontStyle=1" vertex="1" parent="fw_uWWqq9sqviA4zHHhh-3">
          <mxGeometry x="820" y="69" width="220" height="100" as="geometry" />
        </mxCell>
        <mxCell id="JA0r4Bj9peXNiJifJEJn-3" value="Fin" style="ellipse;whiteSpace=wrap;html=1;aspect=fixed;fillColor=#f8cecc;strokeColor=#b85450;fontColor=#0D0D0D;fontStyle=1;fontSize=33;" vertex="1" parent="fw_uWWqq9sqviA4zHHhh-3">
          <mxGeometry x="2360" y="94" width="80" height="80" as="geometry" />
        </mxCell>
        <mxCell id="GihU5k3JDy8lmzni7VKv-9" style="edgeStyle=orthogonalEdgeStyle;rounded=0;orthogonalLoop=1;jettySize=auto;html=1;" edge="1" parent="fw_uWWqq9sqviA4zHHhh-3" source="GihU5k3JDy8lmzni7VKv-7" target="JA0r4Bj9peXNiJifJEJn-3">
          <mxGeometry relative="1" as="geometry" />
        </mxCell>
        <mxCell id="GihU5k3JDy8lmzni7VKv-7" value="Pago" style="points=[[0.25,0,0],[0.5,0,0],[0.75,0,0],[1,0.25,0],[1,0.5,0],[1,0.75,0],[0.75,1,0],[0.5,1,0],[0.25,1,0],[0,0.75,0],[0,0.5,0],[0,0.25,0]];shape=mxgraph.bpmn.task;whiteSpace=wrap;rectStyle=rounded;size=10;html=1;container=1;expand=0;collapsible=0;taskMarker=abstract;fontSize=30;fontStyle=1" vertex="1" parent="fw_uWWqq9sqviA4zHHhh-3">
          <mxGeometry x="2041" y="90" width="240" height="88" as="geometry" />
        </mxCell>
        <mxCell id="GihU5k3JDy8lmzni7VKv-3" style="edgeStyle=orthogonalEdgeStyle;rounded=0;orthogonalLoop=1;jettySize=auto;html=1;" edge="1" parent="fw_uWWqq9sqviA4zHHhh-2" source="GihU5k3JDy8lmzni7VKv-0" target="JA0r4Bj9peXNiJifJEJn-0">
          <mxGeometry relative="1" as="geometry" />
        </mxCell>
        <mxCell id="GihU5k3JDy8lmzni7VKv-5" style="edgeStyle=orthogonalEdgeStyle;rounded=0;orthogonalLoop=1;jettySize=auto;html=1;entryX=0.5;entryY=1;entryDx=0;entryDy=0;entryPerimeter=0;" edge="1" parent="fw_uWWqq9sqviA4zHHhh-2" source="fw_uWWqq9sqviA4zHHhh-10" target="fw_uWWqq9sqviA4zHHhh-14">
          <mxGeometry relative="1" as="geometry" />
        </mxCell>
        <mxCell id="GihU5k3JDy8lmzni7VKv-6" style="edgeStyle=orthogonalEdgeStyle;rounded=0;orthogonalLoop=1;jettySize=auto;html=1;entryX=0;entryY=0.5;entryDx=0;entryDy=0;entryPerimeter=0;" edge="1" parent="fw_uWWqq9sqviA4zHHhh-2" source="fw_uWWqq9sqviA4zHHhh-14" target="JA0r4Bj9peXNiJifJEJn-6">
          <mxGeometry relative="1" as="geometry" />
        </mxCell>
        <mxCell id="GihU5k3JDy8lmzni7VKv-8" style="edgeStyle=orthogonalEdgeStyle;rounded=0;orthogonalLoop=1;jettySize=auto;html=1;" edge="1" parent="fw_uWWqq9sqviA4zHHhh-2" source="fw_uWWqq9sqviA4zHHhh-16" target="GihU5k3JDy8lmzni7VKv-7">
          <mxGeometry relative="1" as="geometry" />
        </mxCell>
        <mxCell id="fw_uWWqq9sqviA4zHHhh-17" value="Tecnico" style="swimlane;html=1;startSize=20;horizontal=0;" vertex="1" parent="fw_uWWqq9sqviA4zHHhh-2">
          <mxGeometry y="288" width="2494" height="330" as="geometry" />
        </mxCell>
        <mxCell id="GihU5k3JDy8lmzni7VKv-4" style="edgeStyle=orthogonalEdgeStyle;rounded=0;orthogonalLoop=1;jettySize=auto;html=1;entryX=0;entryY=0.5;entryDx=0;entryDy=0;" edge="1" parent="fw_uWWqq9sqviA4zHHhh-17" source="JA0r4Bj9peXNiJifJEJn-0" target="fw_uWWqq9sqviA4zHHhh-10">
          <mxGeometry relative="1" as="geometry" />
        </mxCell>
        <mxCell id="JA0r4Bj9peXNiJifJEJn-0" value="Responde llamada telefonica" style="rounded=0;whiteSpace=wrap;html=1;fontSize=20;fontStyle=1" vertex="1" parent="fw_uWWqq9sqviA4zHHhh-17">
          <mxGeometry x="825.5" y="146.25" width="209" height="106.5" as="geometry" />
        </mxCell>
        <mxCell id="fw_uWWqq9sqviA4zHHhh-12" value="Servicio realizado" style="rounded=0;whiteSpace=wrap;html=1;fontSize=28;fontStyle=1" vertex="1" parent="fw_uWWqq9sqviA4zHHhh-17">
          <mxGeometry x="1790" y="148" width="180" height="103" as="geometry" />
        </mxCell>
        <mxCell id="fw_uWWqq9sqviA4zHHhh-16" value="Cobro" style="points=[[0.25,0,0],[0.5,0,0],[0.75,0,0],[1,0.25,0],[1,0.5,0],[1,0.75,0],[0.75,1,0],[0.5,1,0],[0.25,1,0],[0,0.75,0],[0,0.5,0],[0,0.25,0]];shape=mxgraph.bpmn.task;whiteSpace=wrap;rectStyle=rounded;size=10;html=1;container=1;expand=0;collapsible=0;taskMarker=abstract;fontSize=31;fontStyle=1" vertex="1" parent="fw_uWWqq9sqviA4zHHhh-17">
          <mxGeometry x="2041" y="156" width="240" height="88" as="geometry" />
        </mxCell>
        <mxCell id="fw_uWWqq9sqviA4zHHhh-11" style="edgeStyle=orthogonalEdgeStyle;rounded=0;orthogonalLoop=1;jettySize=auto;html=1;" edge="1" parent="fw_uWWqq9sqviA4zHHhh-17" source="fw_uWWqq9sqviA4zHHhh-12" target="fw_uWWqq9sqviA4zHHhh-16">
          <mxGeometry relative="1" as="geometry" />
        </mxCell>
        <mxCell id="fw_uWWqq9sqviA4zHHhh-10" value="Programacion de visita&amp;nbsp;" style="rounded=0;whiteSpace=wrap;html=1;fontSize=20;strokeColor=default;align=center;verticalAlign=middle;fontFamily=Helvetica;fontColor=default;fillColor=default;fontStyle=1" vertex="1" parent="fw_uWWqq9sqviA4zHHhh-17">
          <mxGeometry x="1129" y="164.5" width="220" height="70" as="geometry" />
        </mxCell>
        <mxCell id="JA0r4Bj9peXNiJifJEJn-6" value="Servicio en proceso" style="points=[[0.25,0,0],[0.5,0,0],[0.75,0,0],[1,0.25,0],[1,0.5,0],[1,0.75,0],[0.75,1,0],[0.5,1,0],[0.25,1,0],[0,0.75,0],[0,0.5,0],[0,0.25,0]];shape=mxgraph.bpmn.task;whiteSpace=wrap;rectStyle=rounded;size=10;html=1;container=1;expand=0;collapsible=0;taskMarker=abstract;fontSize=25;fontStyle=1" vertex="1" parent="fw_uWWqq9sqviA4zHHhh-17">
          <mxGeometry x="1450" y="158.5" width="270" height="82" as="geometry" />
        </mxCell>
        <mxCell id="JA0r4Bj9peXNiJifJEJn-8" style="edgeStyle=orthogonalEdgeStyle;rounded=0;orthogonalLoop=1;jettySize=auto;html=1;entryX=0;entryY=0.5;entryDx=0;entryDy=0;exitX=1;exitY=0.5;exitDx=0;exitDy=0;exitPerimeter=0;" edge="1" parent="fw_uWWqq9sqviA4zHHhh-17" source="JA0r4Bj9peXNiJifJEJn-6" target="fw_uWWqq9sqviA4zHHhh-12">
          <mxGeometry relative="1" as="geometry" />
        </mxCell>
      </root>
    </mxGraphModel>
  </diagram>
  <diagram name="Estado Actual - Virtual" id="txkUd29YWTqCWn9somrv">
    <mxGraphModel grid="1" page="1" gridSize="10" guides="1" tooltips="1" connect="1" arrows="1" fold="1" pageScale="1" pageWidth="1100" pageHeight="850" background="none" math="0" shadow="0">
      <root>
        <mxCell id="-DEfZ-0J0KOZSOMAyNiJ-0" />
        <mxCell id="-DEfZ-0J0KOZSOMAyNiJ-1" parent="-DEfZ-0J0KOZSOMAyNiJ-0" />
        <mxCell id="-DEfZ-0J0KOZSOMAyNiJ-2" value="Proceso de Gestion de un servicio tecnico - Virtual" style="swimlane;html=1;childLayout=stackLayout;horizontal=1;startSize=20;horizontalStack=0;rounded=0;shadow=0;labelBackgroundColor=none;strokeWidth=1;fontFamily=Verdana;fontSize=8;align=center;" vertex="1" parent="-DEfZ-0J0KOZSOMAyNiJ-1">
          <mxGeometry x="50" y="42" width="4290" height="966" as="geometry" />
        </mxCell>
        <mxCell id="-DEfZ-0J0KOZSOMAyNiJ-6" value="Tecnico" style="swimlane;html=1;startSize=20;horizontal=0;" vertex="1" parent="-DEfZ-0J0KOZSOMAyNiJ-2">
          <mxGeometry y="20" width="4290" height="268" as="geometry">
            <mxRectangle y="20" width="1000" height="30" as="alternateBounds" />
          </mxGeometry>
        </mxCell>
        <mxCell id="brmVrVbmPH0MpekpjgjN-32" value="Inicio : Efectua Orden de Trabajo" style="ellipse;whiteSpace=wrap;html=1;fontSize=20;fontStyle=1;fillColor=#b0e3e6;strokeColor=#0e8088;fontColor=#212121;" vertex="1" parent="-DEfZ-0J0KOZSOMAyNiJ-6">
          <mxGeometry x="1091" y="74" width="140" height="129" as="geometry" />
        </mxCell>
        <mxCell id="brmVrVbmPH0MpekpjgjN-33" value="&lt;span style=&quot;font-weight: normal;&quot;&gt;Recibe Orden de Trabajo&lt;/span&gt;" style="points=[[0.25,0,0],[0.5,0,0],[0.75,0,0],[1,0.25,0],[1,0.5,0],[1,0.75,0],[0.75,1,0],[0.5,1,0],[0.25,1,0],[0,0.75,0],[0,0.5,0],[0,0.25,0]];shape=mxgraph.bpmn.task;whiteSpace=wrap;rectStyle=rounded;size=10;html=1;container=1;expand=0;collapsible=0;taskMarker=abstract;fontStyle=1;fontSize=20;" vertex="1" parent="-DEfZ-0J0KOZSOMAyNiJ-6">
          <mxGeometry x="1308" y="100" width="210" height="74.5" as="geometry" />
        </mxCell>
        <mxCell id="brmVrVbmPH0MpekpjgjN-34" style="edgeStyle=orthogonalEdgeStyle;rounded=0;orthogonalLoop=1;jettySize=auto;html=1;entryX=0;entryY=0.5;entryDx=0;entryDy=0;entryPerimeter=0;" edge="1" parent="-DEfZ-0J0KOZSOMAyNiJ-6" source="brmVrVbmPH0MpekpjgjN-32" target="brmVrVbmPH0MpekpjgjN-33">
          <mxGeometry relative="1" as="geometry" />
        </mxCell>
        <mxCell id="brmVrVbmPH0MpekpjgjN-36" value="&lt;span style=&quot;font-weight: normal;&quot;&gt;Contacta con el cliente&lt;br&gt;(Se define hora y fecha de visita)&lt;br&gt;(Llamada telefonica o Chat de Texto como WhatsApp)&lt;/span&gt;" style="points=[[0.25,0,0],[0.5,0,0],[0.75,0,0],[1,0.25,0],[1,0.5,0],[1,0.75,0],[0.75,1,0],[0.5,1,0],[0.25,1,0],[0,0.75,0],[0,0.5,0],[0,0.25,0]];shape=mxgraph.bpmn.task;whiteSpace=wrap;rectStyle=rounded;size=10;html=1;container=1;expand=0;collapsible=0;taskMarker=abstract;fontStyle=1;fontSize=20;" vertex="1" parent="-DEfZ-0J0KOZSOMAyNiJ-6">
          <mxGeometry x="1591" y="66.87" width="310" height="143.25" as="geometry" />
        </mxCell>
        <mxCell id="brmVrVbmPH0MpekpjgjN-37" style="edgeStyle=orthogonalEdgeStyle;rounded=0;orthogonalLoop=1;jettySize=auto;html=1;entryX=0;entryY=0.5;entryDx=0;entryDy=0;entryPerimeter=0;" edge="1" parent="-DEfZ-0J0KOZSOMAyNiJ-6" source="brmVrVbmPH0MpekpjgjN-33" target="brmVrVbmPH0MpekpjgjN-36">
          <mxGeometry relative="1" as="geometry" />
        </mxCell>
        <mxCell id="brmVrVbmPH0MpekpjgjN-43" style="edgeStyle=orthogonalEdgeStyle;rounded=0;orthogonalLoop=1;jettySize=auto;html=1;" edge="1" parent="-DEfZ-0J0KOZSOMAyNiJ-6" source="brmVrVbmPH0MpekpjgjN-40" target="brmVrVbmPH0MpekpjgjN-42">
          <mxGeometry relative="1" as="geometry" />
        </mxCell>
        <mxCell id="brmVrVbmPH0MpekpjgjN-40" value="&lt;span style=&quot;font-weight: normal;&quot;&gt;Llegada al domicilio / Inicio del servicio&lt;/span&gt;" style="points=[[0.25,0,0],[0.5,0,0],[0.75,0,0],[1,0.25,0],[1,0.5,0],[1,0.75,0],[0.75,1,0],[0.5,1,0],[0.25,1,0],[0,0.75,0],[0,0.5,0],[0,0.25,0]];shape=mxgraph.bpmn.task;whiteSpace=wrap;rectStyle=rounded;size=10;html=1;container=1;expand=0;collapsible=0;taskMarker=abstract;fontStyle=1;fontSize=20;" vertex="1" parent="-DEfZ-0J0KOZSOMAyNiJ-6">
          <mxGeometry x="1990" y="101.25" width="210" height="74.5" as="geometry" />
        </mxCell>
        <mxCell id="brmVrVbmPH0MpekpjgjN-41" style="edgeStyle=orthogonalEdgeStyle;rounded=0;orthogonalLoop=1;jettySize=auto;html=1;entryX=0;entryY=0.5;entryDx=0;entryDy=0;entryPerimeter=0;" edge="1" parent="-DEfZ-0J0KOZSOMAyNiJ-6" source="brmVrVbmPH0MpekpjgjN-36" target="brmVrVbmPH0MpekpjgjN-40">
          <mxGeometry relative="1" as="geometry" />
        </mxCell>
        <mxCell id="brmVrVbmPH0MpekpjgjN-46" style="edgeStyle=orthogonalEdgeStyle;rounded=0;orthogonalLoop=1;jettySize=auto;html=1;" edge="1" parent="-DEfZ-0J0KOZSOMAyNiJ-6" source="brmVrVbmPH0MpekpjgjN-42" target="brmVrVbmPH0MpekpjgjN-44">
          <mxGeometry relative="1" as="geometry" />
        </mxCell>
        <mxCell id="brmVrVbmPH0MpekpjgjN-42" value="&lt;span style=&quot;font-weight: normal;&quot;&gt;Desarrollo del servicio&lt;/span&gt;" style="points=[[0.25,0,0],[0.5,0,0],[0.75,0,0],[1,0.25,0],[1,0.5,0],[1,0.75,0],[0.75,1,0],[0.5,1,0],[0.25,1,0],[0,0.75,0],[0,0.5,0],[0,0.25,0]];shape=mxgraph.bpmn.task;whiteSpace=wrap;rectStyle=rounded;size=10;html=1;container=1;expand=0;collapsible=0;taskMarker=abstract;fontStyle=1;fontSize=20;" vertex="1" parent="-DEfZ-0J0KOZSOMAyNiJ-6">
          <mxGeometry x="2260" y="100.75" width="210" height="74.5" as="geometry" />
        </mxCell>
        <mxCell id="brmVrVbmPH0MpekpjgjN-44" value="&lt;span style=&quot;font-weight: 400;&quot;&gt;Finaliza Servicio / Espera evaluacion y confirmacion del cliente&lt;/span&gt;" style="points=[[0.25,0,0],[0.5,0,0],[0.75,0,0],[1,0.25,0],[1,0.5,0],[1,0.75,0],[0.75,1,0],[0.5,1,0],[0.25,1,0],[0,0.75,0],[0,0.5,0],[0,0.25,0]];shape=mxgraph.bpmn.task;whiteSpace=wrap;rectStyle=rounded;size=10;html=1;container=1;expand=0;collapsible=0;taskMarker=abstract;fontStyle=1;fontSize=20;" vertex="1" parent="-DEfZ-0J0KOZSOMAyNiJ-6">
          <mxGeometry x="2540" y="89.25" width="290" height="98.75" as="geometry" />
        </mxCell>
        <mxCell id="brmVrVbmPH0MpekpjgjN-66" style="edgeStyle=orthogonalEdgeStyle;rounded=0;orthogonalLoop=1;jettySize=auto;html=1;" edge="1" parent="-DEfZ-0J0KOZSOMAyNiJ-6" source="brmVrVbmPH0MpekpjgjN-45" target="brmVrVbmPH0MpekpjgjN-65">
          <mxGeometry relative="1" as="geometry" />
        </mxCell>
        <mxCell id="brmVrVbmPH0MpekpjgjN-45" value="Realiza Cobro por el servicio" style="points=[[0.25,0,0],[0.5,0,0],[0.75,0,0],[1,0.25,0],[1,0.5,0],[1,0.75,0],[0.75,1,0],[0.5,1,0],[0.25,1,0],[0,0.75,0],[0,0.5,0],[0,0.25,0]];shape=mxgraph.bpmn.task;whiteSpace=wrap;rectStyle=rounded;size=10;html=1;container=1;expand=0;collapsible=0;taskMarker=abstract;fontStyle=1;fontSize=20;" vertex="1" parent="-DEfZ-0J0KOZSOMAyNiJ-6">
          <mxGeometry x="2927" y="87.88" width="290" height="98.75" as="geometry" />
        </mxCell>
        <mxCell id="brmVrVbmPH0MpekpjgjN-62" style="edgeStyle=orthogonalEdgeStyle;rounded=0;orthogonalLoop=1;jettySize=auto;html=1;entryX=0;entryY=0.5;entryDx=0;entryDy=0;entryPerimeter=0;" edge="1" parent="-DEfZ-0J0KOZSOMAyNiJ-6" source="brmVrVbmPH0MpekpjgjN-44" target="brmVrVbmPH0MpekpjgjN-45">
          <mxGeometry relative="1" as="geometry" />
        </mxCell>
        <mxCell id="brmVrVbmPH0MpekpjgjN-65" value="&lt;span style=&quot;font-weight: normal;&quot;&gt;Entrega factura fisica y Garantia&lt;/span&gt;" style="points=[[0.25,0,0],[0.5,0,0],[0.75,0,0],[1,0.25,0],[1,0.5,0],[1,0.75,0],[0.75,1,0],[0.5,1,0],[0.25,1,0],[0,0.75,0],[0,0.5,0],[0,0.25,0]];shape=mxgraph.bpmn.task;whiteSpace=wrap;rectStyle=rounded;size=10;html=1;container=1;expand=0;collapsible=0;taskMarker=abstract;fontStyle=1;fontSize=20;" vertex="1" parent="-DEfZ-0J0KOZSOMAyNiJ-6">
          <mxGeometry x="3342" y="86.63" width="290" height="98.75" as="geometry" />
        </mxCell>
        <mxCell id="brmVrVbmPH0MpekpjgjN-72" style="edgeStyle=orthogonalEdgeStyle;rounded=0;orthogonalLoop=1;jettySize=auto;html=1;" edge="1" parent="-DEfZ-0J0KOZSOMAyNiJ-6" source="brmVrVbmPH0MpekpjgjN-69" target="brmVrVbmPH0MpekpjgjN-71">
          <mxGeometry relative="1" as="geometry" />
        </mxCell>
        <mxCell id="brmVrVbmPH0MpekpjgjN-69" value="Informa servicio completado" style="points=[[0.25,0,0],[0.5,0,0],[0.75,0,0],[1,0.25,0],[1,0.5,0],[1,0.75,0],[0.75,1,0],[0.5,1,0],[0.25,1,0],[0,0.75,0],[0,0.5,0],[0,0.25,0]];shape=mxgraph.bpmn.task;whiteSpace=wrap;rectStyle=rounded;size=10;html=1;container=1;expand=0;collapsible=0;taskMarker=abstract;fontStyle=1;fontSize=20;" vertex="1" parent="-DEfZ-0J0KOZSOMAyNiJ-6">
          <mxGeometry x="3700" y="87.25" width="290" height="98.75" as="geometry" />
        </mxCell>
        <mxCell id="brmVrVbmPH0MpekpjgjN-70" style="edgeStyle=orthogonalEdgeStyle;rounded=0;orthogonalLoop=1;jettySize=auto;html=1;entryX=0;entryY=0.5;entryDx=0;entryDy=0;entryPerimeter=0;" edge="1" parent="-DEfZ-0J0KOZSOMAyNiJ-6" source="brmVrVbmPH0MpekpjgjN-65" target="brmVrVbmPH0MpekpjgjN-69">
          <mxGeometry relative="1" as="geometry" />
        </mxCell>
        <mxCell id="brmVrVbmPH0MpekpjgjN-71" value="Finaliza orden de trabajo" style="ellipse;whiteSpace=wrap;html=1;fontSize=20;fontStyle=1;fillColor=#fad9d5;strokeColor=#ae4132;fontColor=#000000;" vertex="1" parent="-DEfZ-0J0KOZSOMAyNiJ-6">
          <mxGeometry x="4060" y="72.87" width="140" height="129" as="geometry" />
        </mxCell>
        <mxCell id="-DEfZ-0J0KOZSOMAyNiJ-46" value="administrador" style="swimlane;html=1;startSize=20;horizontal=0;" vertex="1" parent="-DEfZ-0J0KOZSOMAyNiJ-2">
          <mxGeometry y="288" width="4290" height="330" as="geometry" />
        </mxCell>
        <mxCell id="brmVrVbmPH0MpekpjgjN-15" value="Inicio : Gestion del Servicio" style="ellipse;whiteSpace=wrap;html=1;fontSize=20;fontStyle=1;fillColor=#b0e3e6;strokeColor=#0e8088;fontColor=#212121;" vertex="1" parent="-DEfZ-0J0KOZSOMAyNiJ-46">
          <mxGeometry x="50" y="110" width="140" height="129" as="geometry" />
        </mxCell>
        <mxCell id="brmVrVbmPH0MpekpjgjN-16" value="Informe de Servicios disponibles&lt;br style=&quot;font-size: 18px;&quot;&gt;(Pagina Web)" style="points=[[0.25,0,0],[0.5,0,0],[0.75,0,0],[1,0.25,0],[1,0.5,0],[1,0.75,0],[0.75,1,0],[0.5,1,0],[0.25,1,0],[0,0.75,0],[0,0.5,0],[0,0.25,0]];shape=mxgraph.bpmn.task;whiteSpace=wrap;rectStyle=rounded;size=10;html=1;container=1;expand=0;collapsible=0;taskMarker=abstract;fontSize=18;" vertex="1" parent="-DEfZ-0J0KOZSOMAyNiJ-46">
          <mxGeometry x="245" y="132.5" width="210" height="84" as="geometry" />
        </mxCell>
        <mxCell id="brmVrVbmPH0MpekpjgjN-17" style="edgeStyle=orthogonalEdgeStyle;rounded=0;orthogonalLoop=1;jettySize=auto;html=1;entryX=0;entryY=0.5;entryDx=0;entryDy=0;entryPerimeter=0;" edge="1" parent="-DEfZ-0J0KOZSOMAyNiJ-46" source="brmVrVbmPH0MpekpjgjN-15" target="brmVrVbmPH0MpekpjgjN-16">
          <mxGeometry relative="1" as="geometry" />
        </mxCell>
        <mxCell id="brmVrVbmPH0MpekpjgjN-19" value="&lt;span style=&quot;font-weight: normal;&quot;&gt;Dispone Formato de solicitud de servicio&lt;/span&gt;" style="points=[[0.25,0,0],[0.5,0,0],[0.75,0,0],[1,0.25,0],[1,0.5,0],[1,0.75,0],[0.75,1,0],[0.5,1,0],[0.25,1,0],[0,0.75,0],[0,0.5,0],[0,0.25,0]];shape=mxgraph.bpmn.task;whiteSpace=wrap;rectStyle=rounded;size=10;html=1;container=1;expand=0;collapsible=0;taskMarker=abstract;fontStyle=1;fontSize=20;" vertex="1" parent="-DEfZ-0J0KOZSOMAyNiJ-46">
          <mxGeometry x="510" y="136.5" width="210" height="74.5" as="geometry" />
        </mxCell>
        <mxCell id="brmVrVbmPH0MpekpjgjN-20" style="edgeStyle=orthogonalEdgeStyle;rounded=0;orthogonalLoop=1;jettySize=auto;html=1;entryX=0;entryY=0.5;entryDx=0;entryDy=0;entryPerimeter=0;" edge="1" parent="-DEfZ-0J0KOZSOMAyNiJ-46" source="brmVrVbmPH0MpekpjgjN-16" target="brmVrVbmPH0MpekpjgjN-19">
          <mxGeometry relative="1" as="geometry" />
        </mxCell>
        <mxCell id="brmVrVbmPH0MpekpjgjN-24" value="&lt;span style=&quot;font-weight: normal;&quot;&gt;Recepciona Solicitud del servicio&lt;br&gt;(Pagina Web o Correo Electronico)&lt;/span&gt;" style="points=[[0.25,0,0],[0.5,0,0],[0.75,0,0],[1,0.25,0],[1,0.5,0],[1,0.75,0],[0.75,1,0],[0.5,1,0],[0.25,1,0],[0,0.75,0],[0,0.5,0],[0,0.25,0]];shape=mxgraph.bpmn.task;whiteSpace=wrap;rectStyle=rounded;size=10;html=1;container=1;expand=0;collapsible=0;taskMarker=abstract;fontStyle=1;fontSize=20;" vertex="1" parent="-DEfZ-0J0KOZSOMAyNiJ-46">
          <mxGeometry x="767" y="112" width="240" height="126.5" as="geometry" />
        </mxCell>
        <mxCell id="brmVrVbmPH0MpekpjgjN-25" style="edgeStyle=orthogonalEdgeStyle;rounded=0;orthogonalLoop=1;jettySize=auto;html=1;entryX=0;entryY=0.5;entryDx=0;entryDy=0;entryPerimeter=0;" edge="1" parent="-DEfZ-0J0KOZSOMAyNiJ-46" source="brmVrVbmPH0MpekpjgjN-19" target="brmVrVbmPH0MpekpjgjN-24">
          <mxGeometry relative="1" as="geometry" />
        </mxCell>
        <mxCell id="brmVrVbmPH0MpekpjgjN-31" style="edgeStyle=orthogonalEdgeStyle;rounded=0;orthogonalLoop=1;jettySize=auto;html=1;" edge="1" parent="-DEfZ-0J0KOZSOMAyNiJ-46" source="brmVrVbmPH0MpekpjgjN-28" target="brmVrVbmPH0MpekpjgjN-29">
          <mxGeometry relative="1" as="geometry" />
        </mxCell>
        <mxCell id="brmVrVbmPH0MpekpjgjN-28" value="&lt;span style=&quot;font-weight: 400;&quot;&gt;Evalua solicitud de servicio&lt;/span&gt;" style="points=[[0.25,0,0],[0.5,0,0],[0.75,0,0],[1,0.25,0],[1,0.5,0],[1,0.75,0],[0.75,1,0],[0.5,1,0],[0.25,1,0],[0,0.75,0],[0,0.5,0],[0,0.25,0]];shape=mxgraph.bpmn.task;whiteSpace=wrap;rectStyle=rounded;size=10;html=1;container=1;expand=0;collapsible=0;taskMarker=abstract;fontStyle=1;fontSize=20;" vertex="1" parent="-DEfZ-0J0KOZSOMAyNiJ-46">
          <mxGeometry x="1046" y="139" width="210" height="74.5" as="geometry" />
        </mxCell>
        <mxCell id="brmVrVbmPH0MpekpjgjN-29" value="&lt;span style=&quot;font-weight: normal;&quot;&gt;Asigna Orden de Trabajo&lt;/span&gt;" style="points=[[0.25,0,0],[0.5,0,0],[0.75,0,0],[1,0.25,0],[1,0.5,0],[1,0.75,0],[0.75,1,0],[0.5,1,0],[0.25,1,0],[0,0.75,0],[0,0.5,0],[0,0.25,0]];shape=mxgraph.bpmn.task;whiteSpace=wrap;rectStyle=rounded;size=10;html=1;container=1;expand=0;collapsible=0;taskMarker=abstract;fontStyle=1;fontSize=20;" vertex="1" parent="-DEfZ-0J0KOZSOMAyNiJ-46">
          <mxGeometry x="1309" y="139" width="210" height="74.5" as="geometry" />
        </mxCell>
        <mxCell id="brmVrVbmPH0MpekpjgjN-30" style="edgeStyle=orthogonalEdgeStyle;rounded=0;orthogonalLoop=1;jettySize=auto;html=1;entryX=0;entryY=0.5;entryDx=0;entryDy=0;entryPerimeter=0;" edge="1" parent="-DEfZ-0J0KOZSOMAyNiJ-46" source="brmVrVbmPH0MpekpjgjN-24" target="brmVrVbmPH0MpekpjgjN-28">
          <mxGeometry relative="1" as="geometry" />
        </mxCell>
        <mxCell id="brmVrVbmPH0MpekpjgjN-76" style="edgeStyle=orthogonalEdgeStyle;rounded=0;orthogonalLoop=1;jettySize=auto;html=1;entryX=0;entryY=0.5;entryDx=0;entryDy=0;" edge="1" parent="-DEfZ-0J0KOZSOMAyNiJ-46" source="brmVrVbmPH0MpekpjgjN-73" target="brmVrVbmPH0MpekpjgjN-74">
          <mxGeometry relative="1" as="geometry" />
        </mxCell>
        <mxCell id="brmVrVbmPH0MpekpjgjN-73" value="Recibe informe de servicio completado" style="points=[[0.25,0,0],[0.5,0,0],[0.75,0,0],[1,0.25,0],[1,0.5,0],[1,0.75,0],[0.75,1,0],[0.5,1,0],[0.25,1,0],[0,0.75,0],[0,0.5,0],[0,0.25,0]];shape=mxgraph.bpmn.task;whiteSpace=wrap;rectStyle=rounded;size=10;html=1;container=1;expand=0;collapsible=0;taskMarker=abstract;fontStyle=1;fontSize=20;" vertex="1" parent="-DEfZ-0J0KOZSOMAyNiJ-46">
          <mxGeometry x="3699" y="128" width="290" height="98.75" as="geometry" />
        </mxCell>
        <mxCell id="brmVrVbmPH0MpekpjgjN-74" value="Finaliza gestion de servicio" style="ellipse;whiteSpace=wrap;html=1;fontSize=20;fontStyle=1;fillColor=#fad9d5;strokeColor=#ae4132;fontColor=#000000;" vertex="1" parent="-DEfZ-0J0KOZSOMAyNiJ-46">
          <mxGeometry x="4054" y="113" width="140" height="129" as="geometry" />
        </mxCell>
        <mxCell id="brmVrVbmPH0MpekpjgjN-75" style="edgeStyle=orthogonalEdgeStyle;rounded=0;orthogonalLoop=1;jettySize=auto;html=1;entryX=0;entryY=0.5;entryDx=0;entryDy=0;entryPerimeter=0;" edge="1" parent="-DEfZ-0J0KOZSOMAyNiJ-46" source="brmVrVbmPH0MpekpjgjN-29" target="brmVrVbmPH0MpekpjgjN-73">
          <mxGeometry relative="1" as="geometry" />
        </mxCell>
        <mxCell id="-DEfZ-0J0KOZSOMAyNiJ-67" value="cliente" style="swimlane;html=1;startSize=20;horizontal=0;" vertex="1" parent="-DEfZ-0J0KOZSOMAyNiJ-2">
          <mxGeometry y="618" width="4290" height="348" as="geometry">
            <mxRectangle y="20" width="1000" height="30" as="alternateBounds" />
          </mxGeometry>
        </mxCell>
        <mxCell id="brmVrVbmPH0MpekpjgjN-14" style="edgeStyle=orthogonalEdgeStyle;rounded=0;orthogonalLoop=1;jettySize=auto;html=1;entryX=0;entryY=0.5;entryDx=0;entryDy=0;" edge="1" parent="-DEfZ-0J0KOZSOMAyNiJ-67" source="-DEfZ-0J0KOZSOMAyNiJ-95" target="brmVrVbmPH0MpekpjgjN-9">
          <mxGeometry relative="1" as="geometry" />
        </mxCell>
        <mxCell id="-DEfZ-0J0KOZSOMAyNiJ-95" value="Envio de solicitud de Servicio" style="points=[[0.25,0,0],[0.5,0,0],[0.75,0,0],[1,0.25,0],[1,0.5,0],[1,0.75,0],[0.75,1,0],[0.5,1,0],[0.25,1,0],[0,0.75,0],[0,0.5,0],[0,0.25,0]];shape=mxgraph.bpmn.task;whiteSpace=wrap;rectStyle=rounded;size=10;html=1;container=1;expand=0;collapsible=0;taskMarker=abstract;fontStyle=1;fontSize=20;" vertex="1" parent="-DEfZ-0J0KOZSOMAyNiJ-67">
          <mxGeometry x="781" y="140" width="210" height="74.5" as="geometry" />
        </mxCell>
        <mxCell id="KmLGr5wiNnwe8KZlO8gC-3" value="Verificación de tipos de servicios disponibles" style="points=[[0.25,0,0],[0.5,0,0],[0.75,0,0],[1,0.25,0],[1,0.5,0],[1,0.75,0],[0.75,1,0],[0.5,1,0],[0.25,1,0],[0,0.75,0],[0,0.5,0],[0,0.25,0]];shape=mxgraph.bpmn.task;whiteSpace=wrap;rectStyle=rounded;size=10;html=1;container=1;expand=0;collapsible=0;taskMarker=abstract;fontSize=17;" vertex="1" parent="-DEfZ-0J0KOZSOMAyNiJ-67">
          <mxGeometry x="256" y="138.5" width="190" height="78" as="geometry" />
        </mxCell>
        <mxCell id="KmLGr5wiNnwe8KZlO8gC-7" value="Diligenciamiento de formato de Solicitud de Servicio Tecnico" style="points=[[0.25,0,0],[0.5,0,0],[0.75,0,0],[1,0.25,0],[1,0.5,0],[1,0.75,0],[0.75,1,0],[0.5,1,0],[0.25,1,0],[0,0.75,0],[0,0.5,0],[0,0.25,0]];shape=mxgraph.bpmn.task;whiteSpace=wrap;rectStyle=rounded;size=10;html=1;container=1;expand=0;collapsible=0;taskMarker=abstract;fontSize=15;" vertex="1" parent="-DEfZ-0J0KOZSOMAyNiJ-67">
          <mxGeometry x="528" y="142" width="180" height="71" as="geometry" />
        </mxCell>
        <mxCell id="KmLGr5wiNnwe8KZlO8gC-8" style="edgeStyle=orthogonalEdgeStyle;rounded=0;orthogonalLoop=1;jettySize=auto;html=1;entryX=0;entryY=0.5;entryDx=0;entryDy=0;entryPerimeter=0;" edge="1" parent="-DEfZ-0J0KOZSOMAyNiJ-67" source="KmLGr5wiNnwe8KZlO8gC-3" target="KmLGr5wiNnwe8KZlO8gC-7">
          <mxGeometry relative="1" as="geometry" />
        </mxCell>
        <mxCell id="brmVrVbmPH0MpekpjgjN-2" value="Informacion detallada de:&lt;br&gt;- Cliente.&lt;br&gt;- Electrodomestico" style="points=[[0.25,0,0],[0.5,0,0],[0.75,0,0],[1,0.25,0],[1,0.5,0],[1,0.75,0],[0.75,1,0],[0.5,1,0],[0.25,1,0],[0,0.75,0],[0,0.5,0],[0,0.25,0]];shape=mxgraph.bpmn.task;whiteSpace=wrap;rectStyle=rounded;size=10;html=1;container=1;expand=0;collapsible=0;taskMarker=abstract;" vertex="1" parent="-DEfZ-0J0KOZSOMAyNiJ-67">
          <mxGeometry x="543" y="266" width="150" height="62" as="geometry" />
        </mxCell>
        <mxCell id="brmVrVbmPH0MpekpjgjN-4" value="" style="endArrow=none;dashed=1;html=1;rounded=0;entryX=0.5;entryY=1;entryDx=0;entryDy=0;entryPerimeter=0;" edge="1" parent="-DEfZ-0J0KOZSOMAyNiJ-67" source="brmVrVbmPH0MpekpjgjN-2" target="KmLGr5wiNnwe8KZlO8gC-7">
          <mxGeometry width="50" height="50" relative="1" as="geometry">
            <mxPoint x="798" y="337" as="sourcePoint" />
            <mxPoint x="848" y="287" as="targetPoint" />
          </mxGeometry>
        </mxCell>
        <mxCell id="brmVrVbmPH0MpekpjgjN-9" value="Finaliza Proceso de Solicitud" style="ellipse;whiteSpace=wrap;html=1;fontSize=20;fontStyle=1;fillColor=#fad9d5;strokeColor=#ae4132;fontColor=#000000;" vertex="1" parent="-DEfZ-0J0KOZSOMAyNiJ-67">
          <mxGeometry x="1090" y="114" width="140" height="129" as="geometry" />
        </mxCell>
        <mxCell id="brmVrVbmPH0MpekpjgjN-12" style="edgeStyle=orthogonalEdgeStyle;rounded=0;orthogonalLoop=1;jettySize=auto;html=1;" edge="1" parent="-DEfZ-0J0KOZSOMAyNiJ-67" source="brmVrVbmPH0MpekpjgjN-11" target="KmLGr5wiNnwe8KZlO8gC-3">
          <mxGeometry relative="1" as="geometry" />
        </mxCell>
        <mxCell id="brmVrVbmPH0MpekpjgjN-11" value="Inicio : Solicitud de Servicio" style="ellipse;whiteSpace=wrap;html=1;fontSize=20;fontStyle=1;fillColor=#b0e3e6;strokeColor=#0e8088;fontColor=#212121;" vertex="1" parent="-DEfZ-0J0KOZSOMAyNiJ-67">
          <mxGeometry x="50" y="114" width="140" height="129" as="geometry" />
        </mxCell>
        <mxCell id="brmVrVbmPH0MpekpjgjN-13" style="edgeStyle=orthogonalEdgeStyle;rounded=0;orthogonalLoop=1;jettySize=auto;html=1;entryX=0;entryY=0.5;entryDx=0;entryDy=0;entryPerimeter=0;" edge="1" parent="-DEfZ-0J0KOZSOMAyNiJ-67" source="KmLGr5wiNnwe8KZlO8gC-7" target="-DEfZ-0J0KOZSOMAyNiJ-95">
          <mxGeometry relative="1" as="geometry" />
        </mxCell>
        <mxCell id="brmVrVbmPH0MpekpjgjN-38" value="&lt;span style=&quot;font-weight: 400;&quot;&gt;Responde contacto del tecnico.&lt;/span&gt;" style="points=[[0.25,0,0],[0.5,0,0],[0.75,0,0],[1,0.25,0],[1,0.5,0],[1,0.75,0],[0.75,1,0],[0.5,1,0],[0.25,1,0],[0,0.75,0],[0,0.5,0],[0,0.25,0]];shape=mxgraph.bpmn.task;whiteSpace=wrap;rectStyle=rounded;size=10;html=1;container=1;expand=0;collapsible=0;taskMarker=abstract;fontStyle=1;fontSize=20;" vertex="1" parent="-DEfZ-0J0KOZSOMAyNiJ-67">
          <mxGeometry x="1640" y="120" width="210" height="74.5" as="geometry" />
        </mxCell>
        <mxCell id="brmVrVbmPH0MpekpjgjN-47" value="Confirmacion y Evaluacion del servicio realizado" style="points=[[0.25,0,0],[0.5,0,0],[0.75,0,0],[1,0.25,0],[1,0.5,0],[1,0.75,0],[0.75,1,0],[0.5,1,0],[0.25,1,0],[0,0.75,0],[0,0.5,0],[0,0.25,0]];shape=mxgraph.bpmn.task;whiteSpace=wrap;rectStyle=rounded;size=10;html=1;container=1;expand=0;collapsible=0;taskMarker=abstract;fontStyle=1;fontSize=20;" vertex="1" parent="-DEfZ-0J0KOZSOMAyNiJ-67">
          <mxGeometry x="2541" y="100" width="290" height="98.75" as="geometry" />
        </mxCell>
        <mxCell id="brmVrVbmPH0MpekpjgjN-63" value="Realiza pago por el servicio" style="points=[[0.25,0,0],[0.5,0,0],[0.75,0,0],[1,0.25,0],[1,0.5,0],[1,0.75,0],[0.75,1,0],[0.5,1,0],[0.25,1,0],[0,0.75,0],[0,0.5,0],[0,0.25,0]];shape=mxgraph.bpmn.task;whiteSpace=wrap;rectStyle=rounded;size=10;html=1;container=1;expand=0;collapsible=0;taskMarker=abstract;fontStyle=1;fontSize=20;" vertex="1" parent="-DEfZ-0J0KOZSOMAyNiJ-67">
          <mxGeometry x="2927" y="100" width="290" height="98.75" as="geometry" />
        </mxCell>
        <mxCell id="brmVrVbmPH0MpekpjgjN-67" value="Recibe factura" style="points=[[0.25,0,0],[0.5,0,0],[0.75,0,0],[1,0.25,0],[1,0.5,0],[1,0.75,0],[0.75,1,0],[0.5,1,0],[0.25,1,0],[0,0.75,0],[0,0.5,0],[0,0.25,0]];shape=mxgraph.bpmn.task;whiteSpace=wrap;rectStyle=rounded;size=10;html=1;container=1;expand=0;collapsible=0;taskMarker=abstract;fontStyle=1;fontSize=20;" vertex="1" parent="-DEfZ-0J0KOZSOMAyNiJ-67">
          <mxGeometry x="3343" y="101.88" width="290" height="98.75" as="geometry" />
        </mxCell>
        <mxCell id="brmVrVbmPH0MpekpjgjN-22" value="" style="endArrow=none;dashed=1;html=1;dashPattern=1 3;strokeWidth=2;rounded=0;entryX=0.5;entryY=1;entryDx=0;entryDy=0;entryPerimeter=0;" edge="1" parent="-DEfZ-0J0KOZSOMAyNiJ-2" source="KmLGr5wiNnwe8KZlO8gC-3" target="brmVrVbmPH0MpekpjgjN-16">
          <mxGeometry width="50" height="50" relative="1" as="geometry">
            <mxPoint x="530" y="598" as="sourcePoint" />
            <mxPoint x="580" y="548" as="targetPoint" />
          </mxGeometry>
        </mxCell>
        <mxCell id="brmVrVbmPH0MpekpjgjN-23" value="" style="endArrow=none;dashed=1;html=1;dashPattern=1 3;strokeWidth=2;rounded=0;entryX=0.5;entryY=1;entryDx=0;entryDy=0;entryPerimeter=0;exitX=0.5;exitY=0;exitDx=0;exitDy=0;exitPerimeter=0;" edge="1" parent="-DEfZ-0J0KOZSOMAyNiJ-2" source="KmLGr5wiNnwe8KZlO8gC-7" target="brmVrVbmPH0MpekpjgjN-19">
          <mxGeometry width="50" height="50" relative="1" as="geometry">
            <mxPoint x="361" y="767" as="sourcePoint" />
            <mxPoint x="360" y="514" as="targetPoint" />
          </mxGeometry>
        </mxCell>
        <mxCell id="brmVrVbmPH0MpekpjgjN-26" style="edgeStyle=orthogonalEdgeStyle;rounded=0;orthogonalLoop=1;jettySize=auto;html=1;entryX=0.5;entryY=1;entryDx=0;entryDy=0;entryPerimeter=0;" edge="1" parent="-DEfZ-0J0KOZSOMAyNiJ-2" source="-DEfZ-0J0KOZSOMAyNiJ-95" target="brmVrVbmPH0MpekpjgjN-24">
          <mxGeometry relative="1" as="geometry">
            <mxPoint x="870" y="617.9999999999998" as="targetPoint" />
          </mxGeometry>
        </mxCell>
        <mxCell id="brmVrVbmPH0MpekpjgjN-35" style="edgeStyle=orthogonalEdgeStyle;rounded=0;orthogonalLoop=1;jettySize=auto;html=1;entryX=0.5;entryY=1;entryDx=0;entryDy=0;entryPerimeter=0;" edge="1" parent="-DEfZ-0J0KOZSOMAyNiJ-2" source="brmVrVbmPH0MpekpjgjN-29" target="brmVrVbmPH0MpekpjgjN-33">
          <mxGeometry relative="1" as="geometry" />
        </mxCell>
        <mxCell id="brmVrVbmPH0MpekpjgjN-39" style="edgeStyle=orthogonalEdgeStyle;rounded=0;orthogonalLoop=1;jettySize=auto;html=1;" edge="1" parent="-DEfZ-0J0KOZSOMAyNiJ-2" source="brmVrVbmPH0MpekpjgjN-36" target="brmVrVbmPH0MpekpjgjN-38">
          <mxGeometry relative="1" as="geometry" />
        </mxCell>
        <mxCell id="brmVrVbmPH0MpekpjgjN-48" style="edgeStyle=orthogonalEdgeStyle;rounded=0;orthogonalLoop=1;jettySize=auto;html=1;entryX=0.5;entryY=0;entryDx=0;entryDy=0;entryPerimeter=0;" edge="1" parent="-DEfZ-0J0KOZSOMAyNiJ-2" source="brmVrVbmPH0MpekpjgjN-44" target="brmVrVbmPH0MpekpjgjN-47">
          <mxGeometry relative="1" as="geometry" />
        </mxCell>
        <mxCell id="brmVrVbmPH0MpekpjgjN-64" style="edgeStyle=orthogonalEdgeStyle;rounded=0;orthogonalLoop=1;jettySize=auto;html=1;entryX=0.5;entryY=0;entryDx=0;entryDy=0;entryPerimeter=0;" edge="1" parent="-DEfZ-0J0KOZSOMAyNiJ-2" source="brmVrVbmPH0MpekpjgjN-45" target="brmVrVbmPH0MpekpjgjN-63">
          <mxGeometry relative="1" as="geometry" />
        </mxCell>
        <mxCell id="brmVrVbmPH0MpekpjgjN-68" style="edgeStyle=orthogonalEdgeStyle;rounded=0;orthogonalLoop=1;jettySize=auto;html=1;" edge="1" parent="-DEfZ-0J0KOZSOMAyNiJ-2" source="brmVrVbmPH0MpekpjgjN-65" target="brmVrVbmPH0MpekpjgjN-67">
          <mxGeometry relative="1" as="geometry" />
        </mxCell>
        <mxCell id="paDW2-K5tppn36ZcK42z-0" style="edgeStyle=orthogonalEdgeStyle;rounded=0;orthogonalLoop=1;jettySize=auto;html=1;entryX=0.5;entryY=0;entryDx=0;entryDy=0;entryPerimeter=0;" edge="1" parent="-DEfZ-0J0KOZSOMAyNiJ-2" source="brmVrVbmPH0MpekpjgjN-69" target="brmVrVbmPH0MpekpjgjN-73">
          <mxGeometry relative="1" as="geometry" />
        </mxCell>
      </root>
    </mxGraphModel>
  </diagram>
  <diagram name="Propuesta del Proyecto" id="c7488fd3-1785-93aa-aadb-54a6760d102a">
    <mxGraphModel grid="1" page="1" gridSize="10" guides="1" tooltips="1" connect="1" arrows="1" fold="1" pageScale="1" pageWidth="1100" pageHeight="850" background="none" math="0" shadow="0">
      <root>
        <mxCell id="0" />
        <mxCell id="1" parent="0" />
        <mxCell id="2b4e8129b02d487f-1" value="Gestion de servicio tecnico" style="swimlane;html=1;childLayout=stackLayout;horizontal=1;startSize=20;horizontalStack=0;rounded=0;shadow=0;labelBackgroundColor=none;strokeWidth=1;fontFamily=Verdana;fontSize=20;align=center;" vertex="1" parent="1">
          <mxGeometry x="50" y="43" width="3220" height="1117" as="geometry" />
        </mxCell>
        <mxCell id="2b4e8129b02d487f-2" value="Tecnico" style="swimlane;html=1;startSize=20;horizontal=0;fontSize=20;" vertex="1" parent="2b4e8129b02d487f-1">
          <mxGeometry y="20" width="3220" height="268" as="geometry">
            <mxRectangle y="20" width="1000" height="30" as="alternateBounds" />
          </mxGeometry>
        </mxCell>
        <mxCell id="UmPLc608OrzuesnUTCeZ-2" style="edgeStyle=orthogonalEdgeStyle;rounded=0;orthogonalLoop=1;jettySize=auto;html=1;fontSize=20;" edge="1" parent="2b4e8129b02d487f-2" source="mXSac2r_Vfn1xm53BNR0-40" target="UmPLc608OrzuesnUTCeZ-1">
          <mxGeometry relative="1" as="geometry" />
        </mxCell>
        <mxCell id="mXSac2r_Vfn1xm53BNR0-40" value="Validación de inicio del servicio" style="points=[[0.25,0,0],[0.5,0,0],[0.75,0,0],[1,0.25,0],[1,0.5,0],[1,0.75,0],[0.75,1,0],[0.5,1,0],[0.25,1,0],[0,0.75,0],[0,0.5,0],[0,0.25,0]];shape=mxgraph.bpmn.task;whiteSpace=wrap;rectStyle=rounded;size=10;html=1;container=1;expand=0;collapsible=0;taskMarker=abstract;fontSize=20;" vertex="1" parent="2b4e8129b02d487f-2">
          <mxGeometry x="1489" y="91.25" width="194" height="66.73" as="geometry" />
        </mxCell>
        <mxCell id="m9-QeIAtOLin9U2sr9Co-9" style="edgeStyle=orthogonalEdgeStyle;rounded=0;orthogonalLoop=1;jettySize=auto;html=1;fontSize=20;" edge="1" parent="2b4e8129b02d487f-2" source="m9-QeIAtOLin9U2sr9Co-6" target="m9-QeIAtOLin9U2sr9Co-8">
          <mxGeometry relative="1" as="geometry" />
        </mxCell>
        <mxCell id="m9-QeIAtOLin9U2sr9Co-6" value="Inicio" style="ellipse;whiteSpace=wrap;html=1;rounded=0;shadow=0;labelBackgroundColor=none;strokeWidth=1;fontFamily=Verdana;fontSize=20;align=center;fillColor=#d5e8d4;strokeColor=#82b366;" vertex="1" parent="2b4e8129b02d487f-2">
          <mxGeometry x="40" y="101.75" width="50" height="47.25" as="geometry" />
        </mxCell>
        <mxCell id="MzNVdBcIr0i9IA8So5om-4" style="edgeStyle=orthogonalEdgeStyle;rounded=0;orthogonalLoop=1;jettySize=auto;html=1;fontSize=20;entryX=0;entryY=0.5;entryDx=0;entryDy=0;entryPerimeter=0;" edge="1" parent="2b4e8129b02d487f-2" source="m9-QeIAtOLin9U2sr9Co-8" target="7m_dVCUChuywNWz58w4I-3">
          <mxGeometry relative="1" as="geometry" />
        </mxCell>
        <mxCell id="m9-QeIAtOLin9U2sr9Co-8" value="Ingreso" style="points=[[0.25,0,0],[0.5,0,0],[0.75,0,0],[1,0.25,0],[1,0.5,0],[1,0.75,0],[0.75,1,0],[0.5,1,0],[0.25,1,0],[0,0.75,0],[0,0.5,0],[0,0.25,0]];shape=mxgraph.bpmn.task;whiteSpace=wrap;rectStyle=rounded;size=10;html=1;container=1;expand=0;collapsible=0;taskMarker=abstract;fontSize=20;" vertex="1" parent="2b4e8129b02d487f-2">
          <mxGeometry x="120" y="106" width="90" height="40" as="geometry" />
        </mxCell>
        <mxCell id="MzNVdBcIr0i9IA8So5om-3" value="Revisión de ordenes de trabajo" style="points=[[0.25,0,0],[0.5,0,0],[0.75,0,0],[1,0.25,0],[1,0.5,0],[1,0.75,0],[0.75,1,0],[0.5,1,0],[0.25,1,0],[0,0.75,0],[0,0.5,0],[0,0.25,0]];shape=mxgraph.bpmn.task;whiteSpace=wrap;rectStyle=rounded;size=10;html=1;container=1;expand=0;collapsible=0;taskMarker=abstract;fontSize=20;" vertex="1" parent="2b4e8129b02d487f-2">
          <mxGeometry x="489" y="92" width="194" height="66.73" as="geometry" />
        </mxCell>
        <mxCell id="UmPLc608OrzuesnUTCeZ-6" style="edgeStyle=orthogonalEdgeStyle;rounded=0;orthogonalLoop=1;jettySize=auto;html=1;fontSize=20;" edge="1" parent="2b4e8129b02d487f-2" source="MzNVdBcIr0i9IA8So5om-5" target="MzNVdBcIr0i9IA8So5om-11">
          <mxGeometry relative="1" as="geometry" />
        </mxCell>
        <mxCell id="MzNVdBcIr0i9IA8So5om-5" value="Selección de orden de trabajo" style="points=[[0.25,0,0],[0.5,0,0],[0.75,0,0],[1,0.25,0],[1,0.5,0],[1,0.75,0],[0.75,1,0],[0.5,1,0],[0.25,1,0],[0,0.75,0],[0,0.5,0],[0,0.25,0]];shape=mxgraph.bpmn.task;whiteSpace=wrap;rectStyle=rounded;size=10;html=1;container=1;expand=0;collapsible=0;taskMarker=abstract;fontSize=20;" vertex="1" parent="2b4e8129b02d487f-2">
          <mxGeometry x="740" y="92" width="194" height="66.73" as="geometry" />
        </mxCell>
        <mxCell id="MzNVdBcIr0i9IA8So5om-8" style="edgeStyle=orthogonalEdgeStyle;rounded=0;orthogonalLoop=1;jettySize=auto;html=1;entryX=0;entryY=0.5;entryDx=0;entryDy=0;entryPerimeter=0;fontSize=20;" edge="1" parent="2b4e8129b02d487f-2" source="MzNVdBcIr0i9IA8So5om-3" target="MzNVdBcIr0i9IA8So5om-5">
          <mxGeometry relative="1" as="geometry" />
        </mxCell>
        <mxCell id="qt8cAzZHupeU5sT827DJ-5" style="edgeStyle=orthogonalEdgeStyle;rounded=0;orthogonalLoop=1;jettySize=auto;html=1;fontSize=20;" edge="1" parent="2b4e8129b02d487f-2" source="MzNVdBcIr0i9IA8So5om-9" target="mXSac2r_Vfn1xm53BNR0-40">
          <mxGeometry relative="1" as="geometry" />
        </mxCell>
        <mxCell id="MzNVdBcIr0i9IA8So5om-9" value="Confirmación de llegada al domicilio" style="points=[[0.25,0,0],[0.5,0,0],[0.75,0,0],[1,0.25,0],[1,0.5,0],[1,0.75,0],[0.75,1,0],[0.5,1,0],[0.25,1,0],[0,0.75,0],[0,0.5,0],[0,0.25,0]];shape=mxgraph.bpmn.task;whiteSpace=wrap;rectStyle=rounded;size=10;html=1;container=1;expand=0;collapsible=0;taskMarker=abstract;fontSize=20;" vertex="1" parent="2b4e8129b02d487f-2">
          <mxGeometry x="1236" y="91.75" width="194" height="66.73" as="geometry" />
        </mxCell>
        <mxCell id="UmPLc608OrzuesnUTCeZ-5" style="edgeStyle=orthogonalEdgeStyle;rounded=0;orthogonalLoop=1;jettySize=auto;html=1;fontSize=20;" edge="1" parent="2b4e8129b02d487f-2" source="UmPLc608OrzuesnUTCeZ-1" target="UmPLc608OrzuesnUTCeZ-4">
          <mxGeometry relative="1" as="geometry" />
        </mxCell>
        <mxCell id="UmPLc608OrzuesnUTCeZ-1" value="Servicio en proceso" style="points=[[0.145,0.145,0],[0.5,0,0],[0.855,0.145,0],[1,0.5,0],[0.855,0.855,0],[0.5,1,0],[0.145,0.855,0],[0,0.5,0]];shape=mxgraph.bpmn.event;html=1;verticalLabelPosition=bottom;labelBackgroundColor=#ffffff;verticalAlign=top;align=center;perimeter=ellipsePerimeter;outlineConnect=0;aspect=fixed;outline=standard;symbol=timer;fillColor=#ffe6cc;strokeColor=#d79b00;fontSize=20;" vertex="1" parent="2b4e8129b02d487f-2">
          <mxGeometry x="1744" y="94" width="60" height="60" as="geometry" />
        </mxCell>
        <mxCell id="s-SUBq7GcLUJXCTT6NLJ-4" style="edgeStyle=orthogonalEdgeStyle;rounded=0;orthogonalLoop=1;jettySize=auto;html=1;fontSize=20;" edge="1" parent="2b4e8129b02d487f-2" source="UmPLc608OrzuesnUTCeZ-4" target="s-SUBq7GcLUJXCTT6NLJ-2">
          <mxGeometry relative="1" as="geometry" />
        </mxCell>
        <mxCell id="UmPLc608OrzuesnUTCeZ-4" value="Servicio finalizado" style="points=[[0.25,0,0],[0.5,0,0],[0.75,0,0],[1,0.25,0],[1,0.5,0],[1,0.75,0],[0.75,1,0],[0.5,1,0],[0.25,1,0],[0,0.75,0],[0,0.5,0],[0,0.25,0]];shape=mxgraph.bpmn.task;whiteSpace=wrap;rectStyle=rounded;size=10;html=1;container=1;expand=0;collapsible=0;taskMarker=abstract;fontSize=20;" vertex="1" parent="2b4e8129b02d487f-2">
          <mxGeometry x="1874" y="102" width="200" height="44" as="geometry" />
        </mxCell>
        <mxCell id="UmPLc608OrzuesnUTCeZ-7" style="edgeStyle=orthogonalEdgeStyle;rounded=0;orthogonalLoop=1;jettySize=auto;html=1;fontSize=20;" edge="1" parent="2b4e8129b02d487f-2" source="MzNVdBcIr0i9IA8So5om-11" target="MzNVdBcIr0i9IA8So5om-9">
          <mxGeometry relative="1" as="geometry" />
        </mxCell>
        <mxCell id="MzNVdBcIr0i9IA8So5om-11" value="Activar y notificar ubicación" style="points=[[0.25,0,0],[0.5,0,0],[0.75,0,0],[1,0.25,0],[1,0.5,0],[1,0.75,0],[0.75,1,0],[0.5,1,0],[0.25,1,0],[0,0.75,0],[0,0.5,0],[0,0.25,0]];shape=mxgraph.bpmn.task;whiteSpace=wrap;rectStyle=rounded;size=10;html=1;container=1;expand=0;collapsible=0;taskMarker=abstract;fontSize=20;" vertex="1" parent="2b4e8129b02d487f-2">
          <mxGeometry x="994" y="91.5" width="194" height="66.73" as="geometry" />
        </mxCell>
        <mxCell id="LmNMFUxvT93qqisnW9WU-35" value="Fin" style="points=[[0.145,0.145,0],[0.5,0,0],[0.855,0.145,0],[1,0.5,0],[0.855,0.855,0],[0.5,1,0],[0.145,0.855,0],[0,0.5,0]];shape=mxgraph.bpmn.event;html=1;verticalLabelPosition=middle;labelBackgroundColor=#ffffff;verticalAlign=middle;align=center;perimeter=ellipsePerimeter;outlineConnect=0;aspect=fixed;outline=standard;symbol=general;fillColor=#f8cecc;strokeColor=#b85450;labelPosition=center;fontSize=20;" vertex="1" parent="2b4e8129b02d487f-2">
          <mxGeometry x="2362" y="94.73" width="59" height="59" as="geometry" />
        </mxCell>
        <mxCell id="s-SUBq7GcLUJXCTT6NLJ-2" value="Envio de reporte a Administrativo" style="points=[[0.25,0,0],[0.5,0,0],[0.75,0,0],[1,0.25,0],[1,0.5,0],[1,0.75,0],[0.75,1,0],[0.5,1,0],[0.25,1,0],[0,0.75,0],[0,0.5,0],[0,0.25,0]];shape=mxgraph.bpmn.task;whiteSpace=wrap;rectStyle=rounded;size=10;html=1;container=1;expand=0;collapsible=0;taskMarker=abstract;fontSize=20;" vertex="1" parent="2b4e8129b02d487f-2">
          <mxGeometry x="2119" y="99.73000000000002" width="180" height="49.04" as="geometry" />
        </mxCell>
        <mxCell id="s-SUBq7GcLUJXCTT6NLJ-5" style="edgeStyle=orthogonalEdgeStyle;rounded=0;orthogonalLoop=1;jettySize=auto;html=1;entryX=0;entryY=0.5;entryDx=0;entryDy=0;entryPerimeter=0;fontSize=20;" edge="1" parent="2b4e8129b02d487f-2" source="s-SUBq7GcLUJXCTT6NLJ-2" target="LmNMFUxvT93qqisnW9WU-35">
          <mxGeometry relative="1" as="geometry" />
        </mxCell>
        <mxCell id="7m_dVCUChuywNWz58w4I-3" value="Recibir orden de trabajo" style="points=[[0.25,0,0],[0.5,0,0],[0.75,0,0],[1,0.25,0],[1,0.5,0],[1,0.75,0],[0.75,1,0],[0.5,1,0],[0.25,1,0],[0,0.75,0],[0,0.5,0],[0,0.25,0]];shape=mxgraph.bpmn.task;whiteSpace=wrap;rectStyle=rounded;size=10;html=1;container=1;expand=0;collapsible=0;taskMarker=abstract;fontSize=20;" vertex="1" parent="2b4e8129b02d487f-2">
          <mxGeometry x="270" y="95" width="150" height="62" as="geometry" />
        </mxCell>
        <mxCell id="BOXJrpIG3S1h2I_l-M3e-2" style="edgeStyle=orthogonalEdgeStyle;rounded=0;orthogonalLoop=1;jettySize=auto;html=1;entryX=0;entryY=0.5;entryDx=0;entryDy=0;entryPerimeter=0;" edge="1" parent="2b4e8129b02d487f-2" source="7m_dVCUChuywNWz58w4I-3" target="MzNVdBcIr0i9IA8So5om-3">
          <mxGeometry relative="1" as="geometry" />
        </mxCell>
        <mxCell id="2b4e8129b02d487f-4" value="administrador" style="swimlane;html=1;startSize=20;horizontal=0;fontSize=20;" vertex="1" parent="2b4e8129b02d487f-1">
          <mxGeometry y="288" width="3220" height="330" as="geometry" />
        </mxCell>
        <mxCell id="7XVcPLWX3waD84gJ96rg-34" value="" style="points=[[0.145,0.145,0],[0.5,0,0],[0.855,0.145,0],[1,0.5,0],[0.855,0.855,0],[0.5,1,0],[0.145,0.855,0],[0,0.5,0]];shape=mxgraph.bpmn.event;html=1;verticalLabelPosition=bottom;labelBackgroundColor=#ffffff;verticalAlign=top;align=center;perimeter=ellipsePerimeter;outlineConnect=0;aspect=fixed;outline=standard;symbol=message;fillColor=#fff2cc;strokeColor=#d6b656;fontSize=20;" vertex="1" parent="2b4e8129b02d487f-4">
          <mxGeometry x="290" y="239" width="50" height="50" as="geometry" />
        </mxCell>
        <mxCell id="oAJQYtvB_i8OsaBzlOtd-56" value="Toma de Solicitud de servicio" style="points=[[0.25,0,0],[0.5,0,0],[0.75,0,0],[1,0.25,0],[1,0.5,0],[1,0.75,0],[0.75,1,0],[0.5,1,0],[0.25,1,0],[0,0.75,0],[0,0.5,0],[0,0.25,0]];shape=mxgraph.bpmn.task;whiteSpace=wrap;rectStyle=rounded;size=10;html=1;container=1;expand=0;collapsible=0;taskMarker=abstract;fontSize=20;" vertex="1" parent="2b4e8129b02d487f-4">
          <mxGeometry x="448" y="69" width="190" height="51.38" as="geometry" />
        </mxCell>
        <mxCell id="m9-QeIAtOLin9U2sr9Co-5" value="Inicio" style="ellipse;whiteSpace=wrap;html=1;rounded=0;shadow=0;labelBackgroundColor=none;strokeWidth=1;fontFamily=Verdana;fontSize=20;align=center;fillColor=#d5e8d4;strokeColor=#82b366;" vertex="1" parent="2b4e8129b02d487f-4">
          <mxGeometry x="40" y="141.38" width="50" height="47.25" as="geometry" />
        </mxCell>
        <mxCell id="m9-QeIAtOLin9U2sr9Co-10" value="Ingreso" style="points=[[0.25,0,0],[0.5,0,0],[0.75,0,0],[1,0.25,0],[1,0.5,0],[1,0.75,0],[0.75,1,0],[0.5,1,0],[0.25,1,0],[0,0.75,0],[0,0.5,0],[0,0.25,0]];shape=mxgraph.bpmn.task;whiteSpace=wrap;rectStyle=rounded;size=10;html=1;container=1;expand=0;collapsible=0;taskMarker=abstract;fontSize=20;" vertex="1" parent="2b4e8129b02d487f-4">
          <mxGeometry x="120" y="145" width="90" height="40" as="geometry" />
        </mxCell>
        <mxCell id="m9-QeIAtOLin9U2sr9Co-11" style="edgeStyle=orthogonalEdgeStyle;rounded=0;orthogonalLoop=1;jettySize=auto;html=1;entryX=0;entryY=0.5;entryDx=0;entryDy=0;entryPerimeter=0;fontSize=20;" edge="1" parent="2b4e8129b02d487f-4" source="m9-QeIAtOLin9U2sr9Co-5" target="m9-QeIAtOLin9U2sr9Co-10">
          <mxGeometry relative="1" as="geometry" />
        </mxCell>
        <mxCell id="jEGxM14ffE2qWHBEgRo5-2" style="edgeStyle=orthogonalEdgeStyle;rounded=0;orthogonalLoop=1;jettySize=auto;html=1;fontSize=20;" edge="1" parent="2b4e8129b02d487f-4" source="MzNVdBcIr0i9IA8So5om-1" target="oAJQYtvB_i8OsaBzlOtd-56">
          <mxGeometry relative="1" as="geometry" />
        </mxCell>
        <mxCell id="MzNVdBcIr0i9IA8So5om-1" value="Verificacion de Rol" style="points=[[0.25,0,0],[0.5,0,0],[0.75,0,0],[1,0.25,0],[1,0.5,0],[1,0.75,0],[0.75,1,0],[0.5,1,0],[0.25,1,0],[0,0.75,0],[0,0.5,0],[0,0.25,0]];shape=mxgraph.bpmn.task;whiteSpace=wrap;rectStyle=rounded;size=10;html=1;container=1;expand=0;collapsible=0;taskMarker=abstract;fontSize=20;" vertex="1" parent="2b4e8129b02d487f-4">
          <mxGeometry x="265" y="70" width="130" height="49" as="geometry" />
        </mxCell>
        <mxCell id="MzNVdBcIr0i9IA8So5om-2" style="edgeStyle=orthogonalEdgeStyle;rounded=0;orthogonalLoop=1;jettySize=auto;html=1;entryX=0;entryY=0.5;entryDx=0;entryDy=0;entryPerimeter=0;fontSize=20;" edge="1" parent="2b4e8129b02d487f-4" source="m9-QeIAtOLin9U2sr9Co-10" target="MzNVdBcIr0i9IA8So5om-1">
          <mxGeometry relative="1" as="geometry" />
        </mxCell>
        <mxCell id="MzNVdBcIr0i9IA8So5om-12" value="Confirmación de visita&lt;br style=&quot;font-size: 20px;&quot;&gt;y&amp;nbsp;&lt;br style=&quot;font-size: 20px;&quot;&gt;Creación de orden de trabajo" style="points=[[0.25,0,0],[0.5,0,0],[0.75,0,0],[1,0.25,0],[1,0.5,0],[1,0.75,0],[0.75,1,0],[0.5,1,0],[0.25,1,0],[0,0.75,0],[0,0.5,0],[0,0.25,0]];shape=mxgraph.bpmn.task;whiteSpace=wrap;rectStyle=rounded;size=10;html=1;container=1;expand=0;collapsible=0;taskMarker=abstract;fontSize=20;" vertex="1" parent="2b4e8129b02d487f-4">
          <mxGeometry x="1026" y="42.35" width="230" height="107.65" as="geometry" />
        </mxCell>
        <mxCell id="MzNVdBcIr0i9IA8So5om-91" value="Asignación de técnico" style="points=[[0.25,0,0],[0.5,0,0],[0.75,0,0],[1,0.25,0],[1,0.5,0],[1,0.75,0],[0.75,1,0],[0.5,1,0],[0.25,1,0],[0,0.75,0],[0,0.5,0],[0,0.25,0]];shape=mxgraph.bpmn.task;whiteSpace=wrap;rectStyle=rounded;size=10;html=1;container=1;expand=0;collapsible=0;taskMarker=abstract;fontSize=20;" vertex="1" parent="2b4e8129b02d487f-4">
          <mxGeometry x="1356" y="114" width="204" height="67.69" as="geometry" />
        </mxCell>
        <mxCell id="MzNVdBcIr0i9IA8So5om-92" value="Análisis y Verificación de solicitud de servicio" style="points=[[0.25,0,0],[0.5,0,0],[0.75,0,0],[1,0.25,0],[1,0.5,0],[1,0.75,0],[0.75,1,0],[0.5,1,0],[0.25,1,0],[0,0.75,0],[0,0.5,0],[0,0.25,0]];shape=mxgraph.bpmn.task;whiteSpace=wrap;rectStyle=rounded;size=10;html=1;container=1;expand=0;collapsible=0;taskMarker=abstract;fontSize=20;" vertex="1" parent="2b4e8129b02d487f-4">
          <mxGeometry x="688" y="47.37" width="220" height="95.63" as="geometry" />
        </mxCell>
        <mxCell id="jEGxM14ffE2qWHBEgRo5-4" style="edgeStyle=orthogonalEdgeStyle;rounded=0;orthogonalLoop=1;jettySize=auto;html=1;entryX=0;entryY=0.5;entryDx=0;entryDy=0;entryPerimeter=0;fontSize=20;" edge="1" parent="2b4e8129b02d487f-4" source="oAJQYtvB_i8OsaBzlOtd-56" target="MzNVdBcIr0i9IA8So5om-92">
          <mxGeometry relative="1" as="geometry" />
        </mxCell>
        <mxCell id="jEGxM14ffE2qWHBEgRo5-5" style="edgeStyle=orthogonalEdgeStyle;rounded=0;orthogonalLoop=1;jettySize=auto;html=1;entryX=0;entryY=0.5;entryDx=0;entryDy=0;entryPerimeter=0;fontSize=20;" edge="1" parent="2b4e8129b02d487f-4" source="MzNVdBcIr0i9IA8So5om-92" target="MzNVdBcIr0i9IA8So5om-12">
          <mxGeometry relative="1" as="geometry" />
        </mxCell>
        <mxCell id="jEGxM14ffE2qWHBEgRo5-6" style="edgeStyle=orthogonalEdgeStyle;rounded=0;orthogonalLoop=1;jettySize=auto;html=1;entryX=0;entryY=0.5;entryDx=0;entryDy=0;entryPerimeter=0;fontSize=20;" edge="1" parent="2b4e8129b02d487f-4" source="MzNVdBcIr0i9IA8So5om-12" target="MzNVdBcIr0i9IA8So5om-91">
          <mxGeometry relative="1" as="geometry" />
        </mxCell>
        <mxCell id="LmNMFUxvT93qqisnW9WU-21" style="edgeStyle=orthogonalEdgeStyle;rounded=0;orthogonalLoop=1;jettySize=auto;html=1;fontSize=20;" edge="1" parent="2b4e8129b02d487f-4" source="LmNMFUxvT93qqisnW9WU-8" target="LmNMFUxvT93qqisnW9WU-9">
          <mxGeometry relative="1" as="geometry" />
        </mxCell>
        <mxCell id="LmNMFUxvT93qqisnW9WU-8" value="Confirmación de pago" style="points=[[0.25,0,0],[0.5,0,0],[0.75,0,0],[1,0.25,0],[1,0.5,0],[1,0.75,0],[0.75,1,0],[0.5,1,0],[0.25,1,0],[0,0.75,0],[0,0.5,0],[0,0.25,0]];shape=mxgraph.bpmn.task;whiteSpace=wrap;rectStyle=rounded;size=10;html=1;container=1;expand=0;collapsible=0;taskMarker=abstract;fontSize=20;" vertex="1" parent="2b4e8129b02d487f-4">
          <mxGeometry x="2440" y="124.97999999999999" width="180" height="49.04" as="geometry" />
        </mxCell>
        <mxCell id="LmNMFUxvT93qqisnW9WU-30" style="edgeStyle=orthogonalEdgeStyle;rounded=0;orthogonalLoop=1;jettySize=auto;html=1;fontSize=20;" edge="1" parent="2b4e8129b02d487f-4" source="LmNMFUxvT93qqisnW9WU-9" target="LmNMFUxvT93qqisnW9WU-29">
          <mxGeometry relative="1" as="geometry" />
        </mxCell>
        <mxCell id="LmNMFUxvT93qqisnW9WU-9" value="Genera y Envía Factura Electrónica y Garantía" style="points=[[0.25,0,0],[0.5,0,0],[0.75,0,0],[1,0.25,0],[1,0.5,0],[1,0.75,0],[0.75,1,0],[0.5,1,0],[0.25,1,0],[0,0.75,0],[0,0.5,0],[0,0.25,0]];shape=mxgraph.bpmn.task;whiteSpace=wrap;rectStyle=rounded;size=10;html=1;container=1;expand=0;collapsible=0;taskMarker=abstract;fontSize=20;" vertex="1" parent="2b4e8129b02d487f-4">
          <mxGeometry x="2680" y="114.03999999999999" width="260" height="71" as="geometry" />
        </mxCell>
        <mxCell id="LmNMFUxvT93qqisnW9WU-29" value="Fin" style="points=[[0.145,0.145,0],[0.5,0,0],[0.855,0.145,0],[1,0.5,0],[0.855,0.855,0],[0.5,1,0],[0.145,0.855,0],[0,0.5,0]];shape=mxgraph.bpmn.event;html=1;verticalLabelPosition=middle;labelBackgroundColor=#ffffff;verticalAlign=middle;align=center;perimeter=ellipsePerimeter;outlineConnect=0;aspect=fixed;outline=standard;symbol=general;fillColor=#f8cecc;strokeColor=#b85450;labelPosition=center;fontSize=20;" vertex="1" parent="2b4e8129b02d487f-4">
          <mxGeometry x="3022" y="120" width="59" height="59" as="geometry" />
        </mxCell>
        <mxCell id="LmNMFUxvT93qqisnW9WU-32" value="Control de estado de Orden de trabajo / Servicio" style="points=[[0.25,0,0],[0.5,0,0],[0.75,0,0],[1,0.25,0],[1,0.5,0],[1,0.75,0],[0.75,1,0],[0.5,1,0],[0.25,1,0],[0,0.75,0],[0,0.5,0],[0,0.25,0]];shape=mxgraph.bpmn.task;whiteSpace=wrap;rectStyle=rounded;size=10;html=1;container=1;expand=0;collapsible=0;taskMarker=abstract;fontSize=20;" vertex="1" parent="2b4e8129b02d487f-4">
          <mxGeometry x="1707" y="110.59" width="230" height="75.04" as="geometry" />
        </mxCell>
        <mxCell id="LmNMFUxvT93qqisnW9WU-33" style="edgeStyle=orthogonalEdgeStyle;rounded=0;orthogonalLoop=1;jettySize=auto;html=1;entryX=0;entryY=0.5;entryDx=0;entryDy=0;entryPerimeter=0;fontSize=20;" edge="1" parent="2b4e8129b02d487f-4" source="MzNVdBcIr0i9IA8So5om-91" target="LmNMFUxvT93qqisnW9WU-32">
          <mxGeometry relative="1" as="geometry" />
        </mxCell>
        <mxCell id="LmNMFUxvT93qqisnW9WU-34" style="edgeStyle=orthogonalEdgeStyle;rounded=0;orthogonalLoop=1;jettySize=auto;html=1;entryX=0;entryY=0.5;entryDx=0;entryDy=0;entryPerimeter=0;fontSize=20;" edge="1" parent="2b4e8129b02d487f-4" source="LmNMFUxvT93qqisnW9WU-32" target="LmNMFUxvT93qqisnW9WU-8">
          <mxGeometry relative="1" as="geometry" />
        </mxCell>
        <mxCell id="qt8cAzZHupeU5sT827DJ-4" style="edgeStyle=orthogonalEdgeStyle;rounded=0;orthogonalLoop=1;jettySize=auto;html=1;entryX=0.5;entryY=1;entryDx=0;entryDy=0;entryPerimeter=0;fontSize=20;" edge="1" parent="2b4e8129b02d487f-1" source="MzNVdBcIr0i9IA8So5om-91" target="7m_dVCUChuywNWz58w4I-3">
          <mxGeometry relative="1" as="geometry">
            <Array as="points">
              <mxPoint x="1458" y="227" />
              <mxPoint x="345" y="227" />
            </Array>
          </mxGeometry>
        </mxCell>
        <mxCell id="oAJQYtvB_i8OsaBzlOtd-9" value="cliente" style="swimlane;html=1;startSize=20;horizontal=0;fontSize=20;" vertex="1" parent="1">
          <mxGeometry x="50" y="661" width="3220" height="500" as="geometry">
            <mxRectangle y="20" width="1000" height="30" as="alternateBounds" />
          </mxGeometry>
        </mxCell>
        <mxCell id="BOXJrpIG3S1h2I_l-M3e-3" style="edgeStyle=orthogonalEdgeStyle;rounded=0;orthogonalLoop=1;jettySize=auto;html=1;entryX=0.5;entryY=1;entryDx=0;entryDy=0;" edge="1" parent="oAJQYtvB_i8OsaBzlOtd-9" source="oAJQYtvB_i8OsaBzlOtd-11" target="oAJQYtvB_i8OsaBzlOtd-30">
          <mxGeometry relative="1" as="geometry">
            <Array as="points">
              <mxPoint x="775" y="239" />
              <mxPoint x="385" y="239" />
            </Array>
          </mxGeometry>
        </mxCell>
        <mxCell id="oAJQYtvB_i8OsaBzlOtd-11" value="Informe y validación de términos y condiciones y política de privacidad" style="points=[[0.25,0,0],[0.5,0,0],[0.75,0,0],[1,0.25,0],[1,0.5,0],[1,0.75,0],[0.75,1,0],[0.5,1,0],[0.25,1,0],[0,0.75,0],[0,0.5,0],[0,0.25,0]];shape=mxgraph.bpmn.task;whiteSpace=wrap;rectStyle=rounded;size=10;html=1;container=1;expand=0;collapsible=0;taskMarker=abstract;fontSize=20;" vertex="1" parent="oAJQYtvB_i8OsaBzlOtd-9">
          <mxGeometry x="678" y="279" width="194" height="141" as="geometry" />
        </mxCell>
        <mxCell id="oAJQYtvB_i8OsaBzlOtd-12" value="" style="edgeStyle=elbowEdgeStyle;fontSize=20;html=1;endFill=0;startFill=0;endSize=6;startSize=6;dashed=1;dashPattern=1 4;endArrow=none;startArrow=none;rounded=0;entryX=0.417;entryY=1;entryDx=0;entryDy=0;entryPerimeter=0;exitX=0.406;exitY=1.05;exitDx=0;exitDy=0;exitPerimeter=0;" edge="1" parent="oAJQYtvB_i8OsaBzlOtd-9" source="oAJQYtvB_i8OsaBzlOtd-44" target="oAJQYtvB_i8OsaBzlOtd-41">
          <mxGeometry width="160" relative="1" as="geometry">
            <mxPoint x="280" y="318" as="sourcePoint" />
            <mxPoint x="440" y="318" as="targetPoint" />
            <Array as="points">
              <mxPoint x="342" y="338" />
            </Array>
          </mxGeometry>
        </mxCell>
        <mxCell id="oAJQYtvB_i8OsaBzlOtd-13" value="Diligenciamiento de formato de Solicitud de servicio" style="points=[[0.25,0,0],[0.5,0,0],[0.75,0,0],[1,0.25,0],[1,0.5,0],[1,0.75,0],[0.75,1,0],[0.5,1,0],[0.25,1,0],[0,0.75,0],[0,0.5,0],[0,0.25,0]];shape=mxgraph.bpmn.task;whiteSpace=wrap;rectStyle=rounded;size=10;html=1;container=1;expand=0;collapsible=0;taskMarker=abstract;fontSize=20;" vertex="1" parent="oAJQYtvB_i8OsaBzlOtd-9">
          <mxGeometry x="1133" y="379" width="235" height="82" as="geometry" />
        </mxCell>
        <mxCell id="m9-QeIAtOLin9U2sr9Co-4" style="edgeStyle=orthogonalEdgeStyle;rounded=0;orthogonalLoop=1;jettySize=auto;html=1;fontSize=20;" edge="1" parent="oAJQYtvB_i8OsaBzlOtd-9" source="oAJQYtvB_i8OsaBzlOtd-14" target="m9-QeIAtOLin9U2sr9Co-3">
          <mxGeometry relative="1" as="geometry" />
        </mxCell>
        <mxCell id="oAJQYtvB_i8OsaBzlOtd-14" value="Envió de Solicitud de servicio" style="points=[[0.25,0,0],[0.5,0,0],[0.75,0,0],[1,0.25,0],[1,0.5,0],[1,0.75,0],[0.75,1,0],[0.5,1,0],[0.25,1,0],[0,0.75,0],[0,0.5,0],[0,0.25,0]];shape=mxgraph.bpmn.task;whiteSpace=wrap;rectStyle=rounded;size=10;html=1;container=1;expand=0;collapsible=0;taskMarker=abstract;fontSize=20;" vertex="1" parent="oAJQYtvB_i8OsaBzlOtd-9">
          <mxGeometry x="1150" y="275" width="200" height="50" as="geometry" />
        </mxCell>
        <mxCell id="UmPLc608OrzuesnUTCeZ-12" style="edgeStyle=orthogonalEdgeStyle;rounded=0;orthogonalLoop=1;jettySize=auto;html=1;fontSize=20;" edge="1" parent="oAJQYtvB_i8OsaBzlOtd-9" source="oAJQYtvB_i8OsaBzlOtd-15" target="UmPLc608OrzuesnUTCeZ-11">
          <mxGeometry relative="1" as="geometry" />
        </mxCell>
        <mxCell id="oAJQYtvB_i8OsaBzlOtd-15" value="Validación de servicio realizado" style="points=[[0.25,0,0],[0.5,0,0],[0.75,0,0],[1,0.25,0],[1,0.5,0],[1,0.75,0],[0.75,1,0],[0.5,1,0],[0.25,1,0],[0,0.75,0],[0,0.5,0],[0,0.25,0]];shape=mxgraph.bpmn.task;whiteSpace=wrap;rectStyle=rounded;size=10;html=1;container=1;expand=0;collapsible=0;taskMarker=abstract;fontSize=20;" vertex="1" parent="oAJQYtvB_i8OsaBzlOtd-9">
          <mxGeometry x="1809" y="239" width="200" height="60" as="geometry" />
        </mxCell>
        <mxCell id="oAJQYtvB_i8OsaBzlOtd-26" value="Fin" style="points=[[0.145,0.145,0],[0.5,0,0],[0.855,0.145,0],[1,0.5,0],[0.855,0.855,0],[0.5,1,0],[0.145,0.855,0],[0,0.5,0]];shape=mxgraph.bpmn.event;html=1;verticalLabelPosition=middle;labelBackgroundColor=#ffffff;verticalAlign=middle;align=center;perimeter=ellipsePerimeter;outlineConnect=0;aspect=fixed;outline=standard;symbol=general;fillColor=#f8cecc;strokeColor=#b85450;labelPosition=center;fontSize=20;" vertex="1" parent="oAJQYtvB_i8OsaBzlOtd-9">
          <mxGeometry x="3140" y="427" width="59" height="59" as="geometry" />
        </mxCell>
        <mxCell id="oAJQYtvB_i8OsaBzlOtd-28" style="edgeStyle=orthogonalEdgeStyle;rounded=0;orthogonalLoop=1;jettySize=auto;html=1;fontSize=20;" edge="1" parent="oAJQYtvB_i8OsaBzlOtd-9" source="oAJQYtvB_i8OsaBzlOtd-29" target="oAJQYtvB_i8OsaBzlOtd-51">
          <mxGeometry relative="1" as="geometry" />
        </mxCell>
        <mxCell id="oAJQYtvB_i8OsaBzlOtd-29" value="Inicio" style="ellipse;whiteSpace=wrap;html=1;rounded=0;shadow=0;labelBackgroundColor=none;strokeWidth=1;fontFamily=Verdana;fontSize=20;align=center;fillColor=#d5e8d4;strokeColor=#82b366;" vertex="1" parent="oAJQYtvB_i8OsaBzlOtd-9">
          <mxGeometry x="48" y="28" width="50" height="47.25" as="geometry" />
        </mxCell>
        <mxCell id="oAJQYtvB_i8OsaBzlOtd-30" value="Iniciar sesión (Contraseña)" style="rounded=1;whiteSpace=wrap;html=1;strokeColor=default;align=center;verticalAlign=middle;fontFamily=Helvetica;fontSize=20;fontColor=default;startSize=20;fillColor=default;" vertex="1" parent="oAJQYtvB_i8OsaBzlOtd-9">
          <mxGeometry x="316" y="60" width="138" height="46.5" as="geometry" />
        </mxCell>
        <mxCell id="oAJQYtvB_i8OsaBzlOtd-31" value="Si" style="edgeStyle=orthogonalEdgeStyle;rounded=0;orthogonalLoop=1;jettySize=auto;html=1;entryX=0;entryY=0.5;entryDx=0;entryDy=0;fontSize=20;exitX=0.5;exitY=0;exitDx=0;exitDy=0;" edge="1" parent="oAJQYtvB_i8OsaBzlOtd-9" source="oAJQYtvB_i8OsaBzlOtd-32" target="oAJQYtvB_i8OsaBzlOtd-30">
          <mxGeometry relative="1" as="geometry" />
        </mxCell>
        <mxCell id="oAJQYtvB_i8OsaBzlOtd-32" value="&lt;font style=&quot;font-size: 20px;&quot;&gt;Tiene una cuenta registrada?&lt;/font&gt;" style="rhombus;whiteSpace=wrap;html=1;strokeColor=#d6b656;align=center;verticalAlign=middle;fontFamily=Helvetica;fontSize=20;startSize=20;fillColor=#fff2cc;" vertex="1" parent="oAJQYtvB_i8OsaBzlOtd-9">
          <mxGeometry x="252" y="186.25" width="38" height="42" as="geometry" />
        </mxCell>
        <mxCell id="oAJQYtvB_i8OsaBzlOtd-33" value="&lt;font style=&quot;vertical-align: inherit; font-size: 20px;&quot;&gt;&lt;font style=&quot;vertical-align: inherit; font-size: 20px;&quot;&gt;Registrarse&lt;/font&gt;&lt;/font&gt;" style="points=[[0.25,0,0],[0.5,0,0],[0.75,0,0],[1,0.25,0],[1,0.5,0],[1,0.75,0],[0.75,1,0],[0.5,1,0],[0.25,1,0],[0,0.75,0],[0,0.5,0],[0,0.25,0]];shape=mxgraph.bpmn.task;whiteSpace=wrap;rectStyle=rounded;size=10;html=1;container=1;expand=0;collapsible=0;taskMarker=abstract;fontSize=20;" vertex="1" parent="oAJQYtvB_i8OsaBzlOtd-9">
          <mxGeometry x="340" y="279" width="102" height="40" as="geometry" />
        </mxCell>
        <mxCell id="oAJQYtvB_i8OsaBzlOtd-34" value="No" style="edgeStyle=orthogonalEdgeStyle;rounded=0;orthogonalLoop=1;jettySize=auto;html=1;entryX=0;entryY=0.5;entryDx=0;entryDy=0;entryPerimeter=0;fontSize=20;" edge="1" parent="oAJQYtvB_i8OsaBzlOtd-9" source="oAJQYtvB_i8OsaBzlOtd-32" target="oAJQYtvB_i8OsaBzlOtd-33">
          <mxGeometry relative="1" as="geometry">
            <Array as="points">
              <mxPoint x="271" y="299" />
              <mxPoint x="340" y="299" />
            </Array>
          </mxGeometry>
        </mxCell>
        <mxCell id="oAJQYtvB_i8OsaBzlOtd-35" value="&lt;font style=&quot;font-size: 20px;&quot; color=&quot;#0a0a0a&quot;&gt;Validación de datos de ingreso&lt;/font&gt;" style="points=[[0.25,0.25,0],[0.5,0,0],[0.75,0.25,0],[1,0.5,0],[0.75,0.75,0],[0.5,1,0],[0.25,0.75,0],[0,0.5,0]];shape=mxgraph.bpmn.gateway2;html=1;verticalLabelPosition=bottom;labelBackgroundColor=#ffffff;verticalAlign=top;align=center;perimeter=rhombusPerimeter;outlineConnect=0;outline=none;symbol=none;fillColor=#fff2cc;strokeColor=#d6b656;fontSize=20;" vertex="1" parent="oAJQYtvB_i8OsaBzlOtd-9">
          <mxGeometry x="550" y="117.25" width="50" height="46" as="geometry" />
        </mxCell>
        <mxCell id="oAJQYtvB_i8OsaBzlOtd-36" style="edgeStyle=orthogonalEdgeStyle;rounded=0;orthogonalLoop=1;jettySize=auto;html=1;entryX=0;entryY=0.5;entryDx=0;entryDy=0;entryPerimeter=0;fontSize=20;" edge="1" parent="oAJQYtvB_i8OsaBzlOtd-9" source="oAJQYtvB_i8OsaBzlOtd-30" target="oAJQYtvB_i8OsaBzlOtd-35">
          <mxGeometry relative="1" as="geometry" />
        </mxCell>
        <mxCell id="oAJQYtvB_i8OsaBzlOtd-37" style="edgeStyle=orthogonalEdgeStyle;rounded=0;orthogonalLoop=1;jettySize=auto;html=1;fontSize=20;" edge="1" parent="oAJQYtvB_i8OsaBzlOtd-9" source="oAJQYtvB_i8OsaBzlOtd-38" target="oAJQYtvB_i8OsaBzlOtd-45">
          <mxGeometry relative="1" as="geometry" />
        </mxCell>
        <mxCell id="oAJQYtvB_i8OsaBzlOtd-38" value="Consulta de tipos de servicios disponibles" style="points=[[0.25,0,0],[0.5,0,0],[0.75,0,0],[1,0.25,0],[1,0.5,0],[1,0.75,0],[0.75,1,0],[0.5,1,0],[0.25,1,0],[0,0.75,0],[0,0.5,0],[0,0.25,0]];shape=mxgraph.bpmn.task;whiteSpace=wrap;rectStyle=rounded;size=10;html=1;container=1;expand=0;collapsible=0;taskMarker=abstract;fontSize=20;" vertex="1" parent="oAJQYtvB_i8OsaBzlOtd-9">
          <mxGeometry x="890" y="130" width="180" height="109" as="geometry" />
        </mxCell>
        <mxCell id="oAJQYtvB_i8OsaBzlOtd-39" value="Correctos" style="rounded=0;orthogonalLoop=1;jettySize=auto;html=1;entryX=0;entryY=0.5;entryDx=0;entryDy=0;entryPerimeter=0;fontSize=20;edgeStyle=orthogonalEdgeStyle;" edge="1" parent="oAJQYtvB_i8OsaBzlOtd-9" source="oAJQYtvB_i8OsaBzlOtd-35" target="oAJQYtvB_i8OsaBzlOtd-38">
          <mxGeometry relative="1" as="geometry" />
        </mxCell>
        <mxCell id="oAJQYtvB_i8OsaBzlOtd-40" style="edgeStyle=elbowEdgeStyle;rounded=0;orthogonalLoop=1;jettySize=auto;html=1;fontSize=20;entryX=0;entryY=0.5;entryDx=0;entryDy=0;entryPerimeter=0;" edge="1" parent="oAJQYtvB_i8OsaBzlOtd-9" source="oAJQYtvB_i8OsaBzlOtd-41" target="oAJQYtvB_i8OsaBzlOtd-11">
          <mxGeometry relative="1" as="geometry" />
        </mxCell>
        <mxCell id="oAJQYtvB_i8OsaBzlOtd-41" value="Toma de datos (Formulario de registro)" style="points=[[0.25,0,0],[0.5,0,0],[0.75,0,0],[1,0.25,0],[1,0.5,0],[1,0.75,0],[0.75,1,0],[0.5,1,0],[0.25,1,0],[0,0.75,0],[0,0.5,0],[0,0.25,0]];shape=mxgraph.bpmn.task;whiteSpace=wrap;rectStyle=rounded;size=10;html=1;container=1;expand=0;collapsible=0;taskMarker=abstract;fontSize=20;" vertex="1" parent="oAJQYtvB_i8OsaBzlOtd-9">
          <mxGeometry x="481" y="358" width="150" height="69" as="geometry" />
        </mxCell>
        <mxCell id="oAJQYtvB_i8OsaBzlOtd-42" style="edgeStyle=orthogonalEdgeStyle;rounded=0;orthogonalLoop=1;jettySize=auto;html=1;entryX=0;entryY=0.5;entryDx=0;entryDy=0;entryPerimeter=0;fontSize=20;" edge="1" parent="oAJQYtvB_i8OsaBzlOtd-9" source="oAJQYtvB_i8OsaBzlOtd-33" target="oAJQYtvB_i8OsaBzlOtd-41">
          <mxGeometry relative="1" as="geometry" />
        </mxCell>
        <mxCell id="oAJQYtvB_i8OsaBzlOtd-43" value="Incorrectos" style="edgeStyle=orthogonalEdgeStyle;rounded=0;orthogonalLoop=1;jettySize=auto;html=1;entryX=0.64;entryY=1.092;entryDx=0;entryDy=0;entryPerimeter=0;fontSize=20;" edge="1" parent="oAJQYtvB_i8OsaBzlOtd-9" source="oAJQYtvB_i8OsaBzlOtd-35" target="oAJQYtvB_i8OsaBzlOtd-49">
          <mxGeometry relative="1" as="geometry">
            <Array as="points">
              <mxPoint x="575" y="85" />
              <mxPoint x="635" y="85" />
              <mxPoint x="635" y="109" />
              <mxPoint x="761" y="109" />
            </Array>
          </mxGeometry>
        </mxCell>
        <mxCell id="oAJQYtvB_i8OsaBzlOtd-44" value="Nombre de usuario&lt;br style=&quot;font-size: 20px;&quot;&gt;Numero de contacto&lt;br style=&quot;font-size: 20px;&quot;&gt;Correo electrónico&lt;br style=&quot;font-size: 20px;&quot;&gt;Creación de Contraseña" style="points=[[0.25,0,0],[0.5,0,0],[0.75,0,0],[1,0.25,0],[1,0.5,0],[1,0.75,0],[0.75,1,0],[0.5,1,0],[0.25,1,0],[0,0.75,0],[0,0.5,0],[0,0.25,0]];rounded=1;dashed=1;dashPattern=5 2 1 2;labelPosition=center;verticalLabelPosition=middle;align=center;verticalAlign=middle;fontSize=20;html=1;whiteSpace=wrap;" vertex="1" parent="oAJQYtvB_i8OsaBzlOtd-9">
          <mxGeometry x="45" y="328" width="190" height="124" as="geometry" />
        </mxCell>
        <mxCell id="oAJQYtvB_i8OsaBzlOtd-45" value="Selección de servicio" style="points=[[0.25,0,0],[0.5,0,0],[0.75,0,0],[1,0.25,0],[1,0.5,0],[1,0.75,0],[0.75,1,0],[0.5,1,0],[0.25,1,0],[0,0.75,0],[0,0.5,0],[0,0.25,0]];shape=mxgraph.bpmn.task;whiteSpace=wrap;rectStyle=rounded;size=10;html=1;container=1;expand=0;collapsible=0;taskMarker=abstract;fontSize=20;" vertex="1" parent="oAJQYtvB_i8OsaBzlOtd-9">
          <mxGeometry x="910" y="360" width="140" height="62" as="geometry" />
        </mxCell>
        <mxCell id="oAJQYtvB_i8OsaBzlOtd-49" value="Restablecimiento de datos (ejem: contraseña, numero teléfono" style="points=[[0.25,0,0],[0.5,0,0],[0.75,0,0],[1,0.25,0],[1,0.5,0],[1,0.75,0],[0.75,1,0],[0.5,1,0],[0.25,1,0],[0,0.75,0],[0,0.5,0],[0,0.25,0]];shape=mxgraph.bpmn.task;whiteSpace=wrap;rectStyle=rounded;size=10;html=1;container=1;expand=0;collapsible=0;taskMarker=abstract;fontSize=20;" vertex="1" parent="oAJQYtvB_i8OsaBzlOtd-9">
          <mxGeometry x="569" y="16" width="300" height="55" as="geometry" />
        </mxCell>
        <mxCell id="oAJQYtvB_i8OsaBzlOtd-50" style="edgeStyle=orthogonalEdgeStyle;rounded=0;orthogonalLoop=1;jettySize=auto;html=1;fontSize=20;" edge="1" parent="oAJQYtvB_i8OsaBzlOtd-9" source="oAJQYtvB_i8OsaBzlOtd-51" target="oAJQYtvB_i8OsaBzlOtd-32">
          <mxGeometry relative="1" as="geometry" />
        </mxCell>
        <mxCell id="oAJQYtvB_i8OsaBzlOtd-51" value="Autentificación (correo - usuario)" style="rounded=1;whiteSpace=wrap;html=1;strokeColor=default;align=center;verticalAlign=middle;fontFamily=Helvetica;fontSize=20;fontColor=default;startSize=20;fillColor=default;" vertex="1" parent="oAJQYtvB_i8OsaBzlOtd-9">
          <mxGeometry x="54" y="162" width="148" height="89.25" as="geometry" />
        </mxCell>
        <mxCell id="oAJQYtvB_i8OsaBzlOtd-54" style="edgeStyle=orthogonalEdgeStyle;rounded=0;orthogonalLoop=1;jettySize=auto;html=1;entryX=0;entryY=0.5;entryDx=0;entryDy=0;entryPerimeter=0;fontSize=20;" edge="1" parent="oAJQYtvB_i8OsaBzlOtd-9" source="oAJQYtvB_i8OsaBzlOtd-45" target="oAJQYtvB_i8OsaBzlOtd-13">
          <mxGeometry relative="1" as="geometry" />
        </mxCell>
        <mxCell id="oAJQYtvB_i8OsaBzlOtd-55" style="edgeStyle=orthogonalEdgeStyle;rounded=0;orthogonalLoop=1;jettySize=auto;html=1;entryX=0.5;entryY=1;entryDx=0;entryDy=0;entryPerimeter=0;fontSize=20;" edge="1" parent="oAJQYtvB_i8OsaBzlOtd-9" source="oAJQYtvB_i8OsaBzlOtd-13" target="oAJQYtvB_i8OsaBzlOtd-14">
          <mxGeometry relative="1" as="geometry" />
        </mxCell>
        <mxCell id="m9-QeIAtOLin9U2sr9Co-3" value="" style="points=[[0.145,0.145,0],[0.5,0,0],[0.855,0.145,0],[1,0.5,0],[0.855,0.855,0],[0.5,1,0],[0.145,0.855,0],[0,0.5,0]];shape=mxgraph.bpmn.event;html=1;verticalLabelPosition=bottom;labelBackgroundColor=#ffffff;verticalAlign=top;align=center;perimeter=ellipsePerimeter;outlineConnect=0;aspect=fixed;outline=standard;symbol=timer;fillColor=#ffe6cc;strokeColor=#d79b00;fontSize=20;" vertex="1" parent="oAJQYtvB_i8OsaBzlOtd-9">
          <mxGeometry x="1224" y="188" width="50" height="50" as="geometry" />
        </mxCell>
        <mxCell id="oAJQYtvB_i8OsaBzlOtd-53" value="Acordar hora y fecha de la visita" style="points=[[0.25,0,0],[0.5,0,0],[0.75,0,0],[1,0.25,0],[1,0.5,0],[1,0.75,0],[0.75,1,0],[0.5,1,0],[0.25,1,0],[0,0.75,0],[0,0.5,0],[0,0.25,0]];shape=mxgraph.bpmn.task;whiteSpace=wrap;rectStyle=rounded;size=10;html=1;container=1;expand=0;collapsible=0;taskMarker=abstract;fontSize=20;" vertex="1" parent="oAJQYtvB_i8OsaBzlOtd-9">
          <mxGeometry x="1318" y="70" width="150" height="62" as="geometry" />
        </mxCell>
        <mxCell id="jEGxM14ffE2qWHBEgRo5-8" style="edgeStyle=orthogonalEdgeStyle;rounded=0;orthogonalLoop=1;jettySize=auto;html=1;entryX=0.5;entryY=1;entryDx=0;entryDy=0;entryPerimeter=0;fontSize=20;" edge="1" parent="oAJQYtvB_i8OsaBzlOtd-9" source="m9-QeIAtOLin9U2sr9Co-3" target="7m_dVCUChuywNWz58w4I-2">
          <mxGeometry relative="1" as="geometry" />
        </mxCell>
        <mxCell id="LmNMFUxvT93qqisnW9WU-11" style="edgeStyle=orthogonalEdgeStyle;rounded=0;orthogonalLoop=1;jettySize=auto;html=1;fontSize=20;" edge="1" parent="oAJQYtvB_i8OsaBzlOtd-9" source="UmPLc608OrzuesnUTCeZ-11" target="LmNMFUxvT93qqisnW9WU-10">
          <mxGeometry relative="1" as="geometry" />
        </mxCell>
        <mxCell id="UmPLc608OrzuesnUTCeZ-11" value="Pago" style="points=[[0.25,0,0],[0.5,0,0],[0.75,0,0],[1,0.25,0],[1,0.5,0],[1,0.75,0],[0.75,1,0],[0.5,1,0],[0.25,1,0],[0,0.75,0],[0,0.5,0],[0,0.25,0]];shape=mxgraph.bpmn.task;whiteSpace=wrap;rectStyle=rounded;size=10;html=1;container=1;expand=0;collapsible=0;taskMarker=abstract;fontSize=20;" vertex="1" parent="oAJQYtvB_i8OsaBzlOtd-9">
          <mxGeometry x="1840" y="407" width="140" height="45" as="geometry" />
        </mxCell>
        <mxCell id="UmPLc608OrzuesnUTCeZ-13" value="&lt;span style=&quot;font-size: 20px;&quot;&gt;Tarjeta&lt;/span&gt;&lt;br style=&quot;font-size: 20px;&quot;&gt;&lt;span style=&quot;font-size: 20px;&quot;&gt;Pago pse&amp;nbsp;&lt;/span&gt;&lt;br style=&quot;font-size: 20px;&quot;&gt;&lt;span style=&quot;font-size: 20px;&quot;&gt;Billeteras digitales&lt;/span&gt;" style="points=[[0.25,0,0],[0.5,0,0],[0.75,0,0],[1,0.25,0],[1,0.5,0],[1,0.75,0],[0.75,1,0],[0.5,1,0],[0.25,1,0],[0,0.75,0],[0,0.5,0],[0,0.25,0]];shape=mxgraph.bpmn.task;whiteSpace=wrap;rectStyle=rounded;size=10;html=1;container=1;expand=0;collapsible=0;taskMarker=abstract;fontSize=20;" vertex="1" parent="oAJQYtvB_i8OsaBzlOtd-9">
          <mxGeometry x="2220" y="379" width="160" height="94" as="geometry" />
        </mxCell>
        <mxCell id="bhvo6Oea1RIkYqFiqEX3-1" value="Efectivo" style="points=[[0.25,0,0],[0.5,0,0],[0.75,0,0],[1,0.25,0],[1,0.5,0],[1,0.75,0],[0.75,1,0],[0.5,1,0],[0.25,1,0],[0,0.75,0],[0,0.5,0],[0,0.25,0]];shape=mxgraph.bpmn.task;whiteSpace=wrap;rectStyle=rounded;size=10;html=1;container=1;expand=0;collapsible=0;taskMarker=abstract;fontSize=20;" vertex="1" parent="oAJQYtvB_i8OsaBzlOtd-9">
          <mxGeometry x="2222" y="239" width="140" height="45" as="geometry" />
        </mxCell>
        <mxCell id="LmNMFUxvT93qqisnW9WU-26" style="edgeStyle=orthogonalEdgeStyle;rounded=0;orthogonalLoop=1;jettySize=auto;html=1;fontSize=20;" edge="1" parent="oAJQYtvB_i8OsaBzlOtd-9" source="LmNMFUxvT93qqisnW9WU-2" target="LmNMFUxvT93qqisnW9WU-25">
          <mxGeometry relative="1" as="geometry" />
        </mxCell>
        <mxCell id="LmNMFUxvT93qqisnW9WU-2" value="Verificación de factura electronica y Condiciones de Garantia" style="points=[[0.25,0,0],[0.5,0,0],[0.75,0,0],[1,0.25,0],[1,0.5,0],[1,0.75,0],[0.75,1,0],[0.5,1,0],[0.25,1,0],[0,0.75,0],[0,0.5,0],[0,0.25,0]];shape=mxgraph.bpmn.task;whiteSpace=wrap;rectStyle=rounded;size=10;html=1;container=1;expand=0;collapsible=0;taskMarker=abstract;fontSize=20;" vertex="1" parent="oAJQYtvB_i8OsaBzlOtd-9">
          <mxGeometry x="2853" y="101.25" width="230" height="107" as="geometry" />
        </mxCell>
        <mxCell id="LmNMFUxvT93qqisnW9WU-12" style="edgeStyle=orthogonalEdgeStyle;rounded=0;orthogonalLoop=1;jettySize=auto;html=1;fontSize=20;" edge="1" parent="oAJQYtvB_i8OsaBzlOtd-9" source="LmNMFUxvT93qqisnW9WU-10" target="bhvo6Oea1RIkYqFiqEX3-1">
          <mxGeometry relative="1" as="geometry">
            <Array as="points">
              <mxPoint x="2170" y="313" />
              <mxPoint x="2170" y="262" />
            </Array>
          </mxGeometry>
        </mxCell>
        <mxCell id="LmNMFUxvT93qqisnW9WU-13" style="edgeStyle=orthogonalEdgeStyle;rounded=0;orthogonalLoop=1;jettySize=auto;html=1;fontSize=20;entryX=0;entryY=0.5;entryDx=0;entryDy=0;entryPerimeter=0;" edge="1" parent="oAJQYtvB_i8OsaBzlOtd-9" source="LmNMFUxvT93qqisnW9WU-10" target="UmPLc608OrzuesnUTCeZ-13">
          <mxGeometry relative="1" as="geometry" />
        </mxCell>
        <mxCell id="LmNMFUxvT93qqisnW9WU-10" value="&lt;font style=&quot;font-size: 20px;&quot;&gt;Método de Pago&lt;/font&gt;" style="rhombus;whiteSpace=wrap;html=1;strokeColor=#d6b656;align=center;verticalAlign=middle;fontFamily=Helvetica;fontSize=20;startSize=20;fillColor=#fff2cc;fontColor=#0A0A0A;" vertex="1" parent="oAJQYtvB_i8OsaBzlOtd-9">
          <mxGeometry x="2027" y="258.75" width="90" height="108.25" as="geometry" />
        </mxCell>
        <mxCell id="LmNMFUxvT93qqisnW9WU-27" style="edgeStyle=orthogonalEdgeStyle;rounded=0;orthogonalLoop=1;jettySize=auto;html=1;fontSize=20;" edge="1" parent="oAJQYtvB_i8OsaBzlOtd-9" source="LmNMFUxvT93qqisnW9WU-25" target="oAJQYtvB_i8OsaBzlOtd-26">
          <mxGeometry relative="1" as="geometry" />
        </mxCell>
        <mxCell id="LmNMFUxvT93qqisnW9WU-25" value="Valoración del servicio/Tecnico" style="points=[[0.25,0,0],[0.5,0,0],[0.75,0,0],[1,0.25,0],[1,0.5,0],[1,0.75,0],[0.75,1,0],[0.5,1,0],[0.25,1,0],[0,0.75,0],[0,0.5,0],[0,0.25,0]];shape=mxgraph.bpmn.task;whiteSpace=wrap;rectStyle=rounded;size=10;html=1;container=1;expand=0;collapsible=0;taskMarker=abstract;fontSize=20;" vertex="1" parent="oAJQYtvB_i8OsaBzlOtd-9">
          <mxGeometry x="2838" y="330" width="260" height="71" as="geometry" />
        </mxCell>
        <mxCell id="LmNMFUxvT93qqisnW9WU-42" value="Envió de soporte de pago" style="points=[[0.25,0,0],[0.5,0,0],[0.75,0,0],[1,0.25,0],[1,0.5,0],[1,0.75,0],[0.75,1,0],[0.5,1,0],[0.25,1,0],[0,0.75,0],[0,0.5,0],[0,0.25,0]];shape=mxgraph.bpmn.task;whiteSpace=wrap;rectStyle=rounded;size=10;html=1;container=1;expand=0;collapsible=0;taskMarker=abstract;fontSize=20;" vertex="1" parent="oAJQYtvB_i8OsaBzlOtd-9">
          <mxGeometry x="2450" y="293" width="160" height="100" as="geometry" />
        </mxCell>
        <mxCell id="LmNMFUxvT93qqisnW9WU-43" style="edgeStyle=orthogonalEdgeStyle;rounded=0;orthogonalLoop=1;jettySize=auto;html=1;entryX=0;entryY=0.5;entryDx=0;entryDy=0;entryPerimeter=0;fontSize=20;" edge="1" parent="oAJQYtvB_i8OsaBzlOtd-9" source="bhvo6Oea1RIkYqFiqEX3-1" target="LmNMFUxvT93qqisnW9WU-42">
          <mxGeometry relative="1" as="geometry" />
        </mxCell>
        <mxCell id="LmNMFUxvT93qqisnW9WU-44" style="edgeStyle=orthogonalEdgeStyle;rounded=0;orthogonalLoop=1;jettySize=auto;html=1;entryX=0;entryY=0.5;entryDx=0;entryDy=0;entryPerimeter=0;fontSize=20;exitX=1;exitY=0.5;exitDx=0;exitDy=0;exitPerimeter=0;elbow=vertical;" edge="1" parent="oAJQYtvB_i8OsaBzlOtd-9" source="UmPLc608OrzuesnUTCeZ-13" target="LmNMFUxvT93qqisnW9WU-42">
          <mxGeometry relative="1" as="geometry" />
        </mxCell>
        <mxCell id="GTPIoJ08ALaQLbmQ23k6-1" value="Realizar Seguimiento del servicio" style="points=[[0.25,0,0],[0.5,0,0],[0.75,0,0],[1,0.25,0],[1,0.5,0],[1,0.75,0],[0.75,1,0],[0.5,1,0],[0.25,1,0],[0,0.75,0],[0,0.5,0],[0,0.25,0]];shape=mxgraph.bpmn.task;whiteSpace=wrap;rectStyle=rounded;size=10;html=1;container=1;expand=0;collapsible=0;taskMarker=abstract;fontSize=20;" vertex="1" parent="oAJQYtvB_i8OsaBzlOtd-9">
          <mxGeometry x="1517" y="347" width="200" height="60" as="geometry" />
        </mxCell>
        <mxCell id="GTPIoJ08ALaQLbmQ23k6-2" style="edgeStyle=orthogonalEdgeStyle;rounded=0;orthogonalLoop=1;jettySize=auto;html=1;entryX=0;entryY=0.5;entryDx=0;entryDy=0;entryPerimeter=0;fontSize=20;" edge="1" parent="oAJQYtvB_i8OsaBzlOtd-9" source="oAJQYtvB_i8OsaBzlOtd-53" target="7m_dVCUChuywNWz58w4I-4">
          <mxGeometry relative="1" as="geometry" />
        </mxCell>
        <mxCell id="GTPIoJ08ALaQLbmQ23k6-4" style="edgeStyle=orthogonalEdgeStyle;rounded=0;orthogonalLoop=1;jettySize=auto;html=1;entryX=0;entryY=0.5;entryDx=0;entryDy=0;entryPerimeter=0;fontSize=20;" edge="1" parent="oAJQYtvB_i8OsaBzlOtd-9" source="GTPIoJ08ALaQLbmQ23k6-1" target="oAJQYtvB_i8OsaBzlOtd-15">
          <mxGeometry relative="1" as="geometry" />
        </mxCell>
        <mxCell id="7m_dVCUChuywNWz58w4I-1" value="Verificar detalles del tecnico" style="points=[[0.25,0,0],[0.5,0,0],[0.75,0,0],[1,0.25,0],[1,0.5,0],[1,0.75,0],[0.75,1,0],[0.5,1,0],[0.25,1,0],[0,0.75,0],[0,0.5,0],[0,0.25,0]];shape=mxgraph.bpmn.task;whiteSpace=wrap;rectStyle=rounded;size=10;html=1;container=1;expand=0;collapsible=0;taskMarker=abstract;fontSize=20;" vertex="1" parent="oAJQYtvB_i8OsaBzlOtd-9">
          <mxGeometry x="1542" y="211.63" width="150" height="62" as="geometry" />
        </mxCell>
        <mxCell id="7m_dVCUChuywNWz58w4I-2" value="Comunicacion con el tecnico/Admin" style="points=[[0.25,0,0],[0.5,0,0],[0.75,0,0],[1,0.25,0],[1,0.5,0],[1,0.75,0],[0.75,1,0],[0.5,1,0],[0.25,1,0],[0,0.75,0],[0,0.5,0],[0,0.25,0]];shape=mxgraph.bpmn.task;whiteSpace=wrap;rectStyle=rounded;size=10;html=1;container=1;expand=0;collapsible=0;taskMarker=abstract;fontSize=20;" vertex="1" parent="oAJQYtvB_i8OsaBzlOtd-9">
          <mxGeometry x="1130" y="70" width="150" height="62" as="geometry" />
        </mxCell>
        <mxCell id="7m_dVCUChuywNWz58w4I-4" value="Recibir notificacion de tecnico asignado y servicio en estado activo&amp;nbsp;" style="points=[[0.25,0,0],[0.5,0,0],[0.75,0,0],[1,0.25,0],[1,0.5,0],[1,0.75,0],[0.75,1,0],[0.5,1,0],[0.25,1,0],[0,0.75,0],[0,0.5,0],[0,0.25,0]];shape=mxgraph.bpmn.task;whiteSpace=wrap;rectStyle=rounded;size=10;html=1;container=1;expand=0;collapsible=0;taskMarker=abstract;fontSize=20;" vertex="1" parent="oAJQYtvB_i8OsaBzlOtd-9">
          <mxGeometry x="1501.5" y="54" width="232.5" height="94.25" as="geometry" />
        </mxCell>
        <mxCell id="7m_dVCUChuywNWz58w4I-5" value="Recibir notificacion de factura y garantia" style="points=[[0.25,0,0],[0.5,0,0],[0.75,0,0],[1,0.25,0],[1,0.5,0],[1,0.75,0],[0.75,1,0],[0.5,1,0],[0.25,1,0],[0,0.75,0],[0,0.5,0],[0,0.25,0]];shape=mxgraph.bpmn.task;whiteSpace=wrap;rectStyle=rounded;size=10;html=1;container=1;expand=0;collapsible=0;taskMarker=abstract;fontSize=20;" vertex="1" parent="oAJQYtvB_i8OsaBzlOtd-9">
          <mxGeometry x="2610" y="120" width="190" height="69" as="geometry" />
        </mxCell>
        <mxCell id="7m_dVCUChuywNWz58w4I-6" value="Recibir notificacion de finalizacion del servicio" style="points=[[0.25,0,0],[0.5,0,0],[0.75,0,0],[1,0.25,0],[1,0.5,0],[1,0.75,0],[0.75,1,0],[0.5,1,0],[0.25,1,0],[0,0.75,0],[0,0.5,0],[0,0.25,0]];shape=mxgraph.bpmn.task;whiteSpace=wrap;rectStyle=rounded;size=10;html=1;container=1;expand=0;collapsible=0;taskMarker=abstract;fontSize=20;" vertex="1" parent="oAJQYtvB_i8OsaBzlOtd-9">
          <mxGeometry x="1789" y="80" width="241" height="80" as="geometry" />
        </mxCell>
        <mxCell id="BOXJrpIG3S1h2I_l-M3e-4" style="edgeStyle=orthogonalEdgeStyle;rounded=0;orthogonalLoop=1;jettySize=auto;html=1;entryX=0;entryY=0.5;entryDx=0;entryDy=0;entryPerimeter=0;" edge="1" parent="oAJQYtvB_i8OsaBzlOtd-9" source="7m_dVCUChuywNWz58w4I-5" target="LmNMFUxvT93qqisnW9WU-2">
          <mxGeometry relative="1" as="geometry" />
        </mxCell>
        <mxCell id="BOXJrpIG3S1h2I_l-M3e-5" style="edgeStyle=orthogonalEdgeStyle;rounded=0;orthogonalLoop=1;jettySize=auto;html=1;entryX=0.5;entryY=1;entryDx=0;entryDy=0;entryPerimeter=0;exitX=1;exitY=0.5;exitDx=0;exitDy=0;exitPerimeter=0;" edge="1" parent="oAJQYtvB_i8OsaBzlOtd-9" source="LmNMFUxvT93qqisnW9WU-42" target="7m_dVCUChuywNWz58w4I-5">
          <mxGeometry relative="1" as="geometry" />
        </mxCell>
        <mxCell id="BOXJrpIG3S1h2I_l-M3e-7" style="edgeStyle=orthogonalEdgeStyle;rounded=0;orthogonalLoop=1;jettySize=auto;html=1;entryX=0.5;entryY=0;entryDx=0;entryDy=0;entryPerimeter=0;" edge="1" parent="oAJQYtvB_i8OsaBzlOtd-9" source="7m_dVCUChuywNWz58w4I-6" target="oAJQYtvB_i8OsaBzlOtd-15">
          <mxGeometry relative="1" as="geometry" />
        </mxCell>
        <mxCell id="BOXJrpIG3S1h2I_l-M3e-8" style="edgeStyle=orthogonalEdgeStyle;rounded=0;orthogonalLoop=1;jettySize=auto;html=1;entryX=0;entryY=0.5;entryDx=0;entryDy=0;entryPerimeter=0;" edge="1" parent="oAJQYtvB_i8OsaBzlOtd-9" source="7m_dVCUChuywNWz58w4I-2" target="oAJQYtvB_i8OsaBzlOtd-53">
          <mxGeometry relative="1" as="geometry" />
        </mxCell>
        <mxCell id="BOXJrpIG3S1h2I_l-M3e-9" style="edgeStyle=orthogonalEdgeStyle;rounded=0;orthogonalLoop=1;jettySize=auto;html=1;entryX=0.5;entryY=0;entryDx=0;entryDy=0;entryPerimeter=0;" edge="1" parent="oAJQYtvB_i8OsaBzlOtd-9" source="7m_dVCUChuywNWz58w4I-4" target="7m_dVCUChuywNWz58w4I-1">
          <mxGeometry relative="1" as="geometry" />
        </mxCell>
        <mxCell id="BOXJrpIG3S1h2I_l-M3e-10" style="edgeStyle=orthogonalEdgeStyle;rounded=0;orthogonalLoop=1;jettySize=auto;html=1;entryX=0.5;entryY=0;entryDx=0;entryDy=0;entryPerimeter=0;" edge="1" parent="oAJQYtvB_i8OsaBzlOtd-9" source="7m_dVCUChuywNWz58w4I-1" target="GTPIoJ08ALaQLbmQ23k6-1">
          <mxGeometry relative="1" as="geometry" />
        </mxCell>
        <mxCell id="jEGxM14ffE2qWHBEgRo5-3" style="edgeStyle=orthogonalEdgeStyle;rounded=0;orthogonalLoop=1;jettySize=auto;html=1;entryX=0.5;entryY=1;entryDx=0;entryDy=0;entryPerimeter=0;fontSize=20;exitX=0;exitY=0.5;exitDx=0;exitDy=0;exitPerimeter=0;" edge="1" parent="1" source="oAJQYtvB_i8OsaBzlOtd-14" target="oAJQYtvB_i8OsaBzlOtd-56">
          <mxGeometry relative="1" as="geometry">
            <Array as="points">
              <mxPoint x="1200" y="955" />
              <mxPoint x="1140" y="955" />
              <mxPoint x="1140" y="520" />
              <mxPoint x="593" y="520" />
            </Array>
          </mxGeometry>
        </mxCell>
        <mxCell id="jEGxM14ffE2qWHBEgRo5-7" style="edgeStyle=orthogonalEdgeStyle;rounded=0;orthogonalLoop=1;jettySize=auto;html=1;fontSize=20;exitX=0.5;exitY=1;exitDx=0;exitDy=0;exitPerimeter=0;entryX=0.5;entryY=0;entryDx=0;entryDy=0;entryPerimeter=0;" edge="1" parent="1" source="MzNVdBcIr0i9IA8So5om-12" target="7m_dVCUChuywNWz58w4I-2">
          <mxGeometry relative="1" as="geometry" />
        </mxCell>
        <mxCell id="UmPLc608OrzuesnUTCeZ-9" style="edgeStyle=orthogonalEdgeStyle;rounded=0;orthogonalLoop=1;jettySize=auto;html=1;fontSize=20;entryX=0.5;entryY=0;entryDx=0;entryDy=0;entryPerimeter=0;" edge="1" parent="1" source="UmPLc608OrzuesnUTCeZ-4" target="7m_dVCUChuywNWz58w4I-6">
          <mxGeometry relative="1" as="geometry">
            <Array as="points">
              <mxPoint x="2024" y="590" />
              <mxPoint x="1960" y="590" />
            </Array>
          </mxGeometry>
        </mxCell>
        <mxCell id="LmNMFUxvT93qqisnW9WU-23" style="edgeStyle=orthogonalEdgeStyle;rounded=0;orthogonalLoop=1;jettySize=auto;html=1;entryX=0.5;entryY=0;entryDx=0;entryDy=0;entryPerimeter=0;fontSize=20;" edge="1" parent="1" source="LmNMFUxvT93qqisnW9WU-9" target="7m_dVCUChuywNWz58w4I-5">
          <mxGeometry relative="1" as="geometry" />
        </mxCell>
        <mxCell id="LmNMFUxvT93qqisnW9WU-45" style="edgeStyle=orthogonalEdgeStyle;rounded=0;orthogonalLoop=1;jettySize=auto;html=1;fontSize=20;" edge="1" parent="1" source="LmNMFUxvT93qqisnW9WU-42" target="LmNMFUxvT93qqisnW9WU-8">
          <mxGeometry relative="1" as="geometry" />
        </mxCell>
        <mxCell id="7XVcPLWX3waD84gJ96rg-35" value="Envió de correo electrónico&lt;br style=&quot;font-size: 20px;&quot;&gt;de restablecimiento" style="edgeStyle=orthogonalEdgeStyle;rounded=0;orthogonalLoop=1;jettySize=auto;html=1;entryX=0.5;entryY=0;entryDx=0;entryDy=0;entryPerimeter=0;fontSize=20;exitX=0.5;exitY=0;exitDx=0;exitDy=0;exitPerimeter=0;" edge="1" parent="1" source="oAJQYtvB_i8OsaBzlOtd-49" target="7XVcPLWX3waD84gJ96rg-34">
          <mxGeometry relative="1" as="geometry">
            <Array as="points">
              <mxPoint x="769" y="556" />
              <mxPoint x="600" y="556" />
              <mxPoint x="600" y="540" />
              <mxPoint x="365" y="540" />
            </Array>
            <mxPoint x="600" y="680" as="sourcePoint" />
          </mxGeometry>
        </mxCell>
        <mxCell id="7XVcPLWX3waD84gJ96rg-30" value="Restablecimiento de datos" style="edgeStyle=orthogonalEdgeStyle;rounded=0;orthogonalLoop=1;jettySize=auto;html=1;entryX=0.5;entryY=0;entryDx=0;entryDy=0;fontSize=20;" edge="1" parent="1" source="7XVcPLWX3waD84gJ96rg-34" target="oAJQYtvB_i8OsaBzlOtd-30">
          <mxGeometry relative="1" as="geometry">
            <mxPoint x="433" y="727.5" as="targetPoint" />
            <Array as="points">
              <mxPoint x="365" y="640" />
              <mxPoint x="435" y="640" />
            </Array>
          </mxGeometry>
        </mxCell>
        <mxCell id="BOXJrpIG3S1h2I_l-M3e-11" style="edgeStyle=orthogonalEdgeStyle;rounded=0;orthogonalLoop=1;jettySize=auto;html=1;entryX=0.5;entryY=0;entryDx=0;entryDy=0;entryPerimeter=0;" edge="1" parent="1" source="MzNVdBcIr0i9IA8So5om-91" target="7m_dVCUChuywNWz58w4I-4">
          <mxGeometry relative="1" as="geometry" />
        </mxCell>
      </root>
    </mxGraphModel>
  </diagram>
</mxfile>
